<svg xmlns="http://www.w3.org/2000/svg" width="178" height="51"><rect id="backgroundrect" x="0" y="0" fill="none" stroke="none"/>
  <title>EatonLogo</title>
  
<g class="currentLayer"><g id="svg_1">
    <path d="M42.71522521972656,6.185381889343262 l3.1895182132720947,10.294827461242676 H39.28807067871094 zM36.89685821533203,23.67995834350586 L33.985816955566406,32.214698791503906 h17.01323699951172 l-2.743950605392456,-8.534744262695312 zM81.29391479492188,0.0018367767333984375 H48.63755798339844 v9.165718078613281 H58.94129943847656 V32.214698791503906 h16.578811645507812 c-1.028517484664917,-0.5678759813308716 -8.05733871459961,-5.559206962585449 -8.05733871459961,-14.88100814819336 C67.4813232421875,9.582683563232422 72.71673583984375,1.994389533996582 81.29391479492188,0.0018367767333984375 m5.658702373504639,23.953737258911133 c3.850442409515381,0 6.947134017944336,-2.8593051433563232 6.947134017944336,-6.475779056549072 s-2.8998992443084717,-6.844400405883789 -6.809750556945801,-6.844400405883789 S80.10572814941406,13.903192520141602 80.10572814941406,17.493106842041016 s2.892472982406616,6.475779056549072 6.861733436584473,6.475779056549072 M121.20187377929688,20.259429931640625 L114.57034301757812,0.0018367767333984375 h-16.96868133544922 v32.21284484863281 h10.600784301757812 V12.030196189880371 h0.07426118105649948 L114.84510803222656,32.214698791503906 h17.113489151000977 V0.0018367767333984375 H121.26869201660156 V20.259429931640625 zm-100.66104125976562,11.955283164978027 l3.059560775756836,-9.032880783081055 H12.242149353027344 v-2.7231481075286865 h12.290225982666016 l2.9147517681121826,-8.657617568969727 H12.242149353027344 v-2.620199680328369 h16.051555633544922 L31.390396118164062,0.0018367767333984375 H0.00019073486328125 v32.21284484863281 z" fill="#007bc1" id="svg_2"/>
    <g id="svg_3">
      <path d="M31.03765106201172,39.8527717590332 h2.729098320007324 c0.824299156665802,0 2.1610007286071777,0.0963064432144165 1.6708766222000122,2.1519510746002197 c-0.4232887327671051,1.7833298444747925 -1.2587271928787231,2.593632221221924 -2.970447301864624,2.593632221221924 h-1.67458975315094 l-0.9839608073234558,4.134535789489746 h-0.8837081789970398 zm-0.0928264781832695,4.081401348114014 H32.57856750488281 c0.9208387136459351,0 1.6077547073364258,-0.39186757802963257 1.9382169246673584,-1.7833298444747925 c0.371305912733078,-1.5143359899520874 -0.3416014611721039,-1.6372097730636597 -1.1361961364746094,-1.6372097730636597 H31.761695861816406 z" fill="#231f20" id="svg_4"/>
      <path d="M35.296531677246094,46.28868103027344 l0.371305912733078,-1.474484920501709 c0.18936599791049957,-0.7870562076568604 0.5903764963150024,-2.4242660999298096 2.970447301864624,-2.4242660999298096 s2.005052089691162,1.6372097730636597 1.819399118423462,2.4242660999298096 l-0.352740615606308,1.474484920501709 c-0.371305912733078,1.6172842979431152 -1.2253096103668213,2.563744306564331 -3.0038650035858154,2.563744306564331 S34.914085388183594,47.905967712402344 35.296531677246094,46.28868103027344 zm3.5274064540863037,1.1490356922149658 a10.675045013427734,9.547622680664062 0 0 0 0.5978025794029236,-1.8231807947158813 c0.4344279170036316,-1.8331434726715088 0.41957569122314453,-2.633483409881592 -0.9431170225143433,-2.633483409881592 s-1.7599900960922241,0.800339937210083 -2.1907050609588623,2.633483409881592 a9.943572998046875,8.893403053283691 0 0 0 -0.2710533142089844,1.8231807947158813 c0.033417534083127975,0.1461201310157776 0.06312200427055359,0.8235862255096436 1.2104573249816895,0.8235862255096436 A1.685728907585144,1.507694125175476 0 0 0 38.823944091796875,47.437713623046875 z" fill="#231f20" id="svg_5"/>
      <path d="M41.70527648925781,42.509490966796875 h0.8762818574905396 l0.26362720131874084,5.4396538734436035 h0.029704472050070763 L45.63740539550781,42.509490966796875 h1.0173782110214233 l0.2487749606370926,5.4396538734436035 h0.029704472050070763 L49.78118133544922,42.509490966796875 h0.824299156665802 l-3.3900232315063477,6.210105895996094 h-1.0322304964065552 l-0.26362720131874084,-5.313459396362305 h-0.029704472050070763 l-2.717959403991699,5.313459396362305 h-1.0359435081481934 z" fill="#231f20" id="svg_6"/>
      <path d="M51.400062561035156,45.77394104003906 l-0.11139178276062012,0.48485317826271057 c-0.20793132483959198,0.8567953109741211 -0.2190704643726349,1.9925473928451538 1.0879263877868652,1.9925473928451538 a1.8268252611160278,1.633888840675354 0 0 0 1.856529712677002,-1.4279922246932983 h0.865142822265625 c-0.4492802023887634,1.5010522603988647 -1.485223650932312,2.0191147327423096 -2.8739078044891357,2.0191147327423096 c-1.1956051588058472,0 -2.294670581817627,-0.4350394606590271 -1.856529712677002,-2.3246383666992188 l0.371305912733078,-1.527619481086731 c0.43071484565734863,-1.7932926416397095 1.4629453420639038,-2.620199680328369 3.018717050552368,-2.620199680328369 c2.3986363410949707,0 2.0273303985595703,1.5375823974609375 1.5891894102096558,3.38400936126709 zm3.2786312103271484,-0.5911223292350769 c0.32674920558929443,-1.3748575448989868 0.2784794270992279,-2.2017648220062256 -1.0470826625823975,-2.2017648220062256 s-1.7637032270431519,0.826907217502594 -2.094165325164795,2.2017648220062256 z" fill="#231f20" id="svg_7"/>
      <path d="M58.347206115722656,43.34968185424805 h0.025991415604948997 a2.706820249557495,2.420945167541504 0 0 1 2.142435312271118,-0.9597436785697937 l-0.17822684347629547,0.7505261301994324 a2.1238698959350586,1.8995616436004639 0 0 0 -2.316948890686035,1.5873961448669434 l-0.9505431056022644,3.9850947856903076 h-0.8317252993583679 l1.485223650932312,-6.210105895996094 h0.824299156665802 z" fill="#231f20" id="svg_8"/>
      <path d="M59.95124816894531,48.72622299194336 l1.485223650932312,-6.210105895996094 h0.820586085319519 l-1.485223650932312,6.210105895996094 zm1.7934075593948364,-7.9469428062438965 l0.2190704643726349,-0.9331763982772827 h1.0210912227630615 l-0.226496621966362,0.9331763982772827 z" fill="#231f20" id="svg_9"/>
      <path d="M63.48236083984375,48.72622299194336 H62.65435028076172 l1.485223650932312,-6.210105895996094 h0.820586085319519 l-0.17822684347629547,0.7604888677597046 h0.025991415604948997 a2.5991413593292236,2.3246383666992188 0 0 1 1.8899471759796143,-0.8866835832595825 c1.7265725135803223,0 1.6263200044631958,1.1457147598266602 1.4369539022445679,1.9593381881713867 L67.11001586914062,48.72622299194336 h-0.8317252993583679 l1.0322304964065552,-4.340432167053223 c0.17080073058605194,-0.7239588499069214 0.022278355434536934,-1.4047459363937378 -0.9468300938606262,-1.4047459363937378 c-0.742611825466156,0 -1.6077547073364258,0.4582858681678772 -1.9345039129257202,1.8464272022247314 z" fill="#231f20" id="svg_10"/>
      <path d="M74.10543823242188,42.509490966796875 H74.90745544433594 c-0.15966154634952545,0.5944432616233826 -0.2487749606370926,0.9032880663871765 -0.32674920558929443,1.2220957279205322 l-1.24758780002594,5.2304368019104 c-0.3193230926990509,1.364894986152649 -0.9802476167678833,2.178518295288086 -2.970447301864624,2.178518295288086 c-1.73028564453125,0 -1.8156858682632446,-1.0992218255996704 -1.6114675998687744,-1.7235534191131592 h0.824299156665802 c-0.226496621966362,0.7106751799583435 0.26362720131874084,1.1324310302734375 1.0396565198898315,1.1324310302734375 c1.6040416955947876,0 1.6931549310684204,-0.7770934104919434 2.1387221813201904,-2.633483409881592 h-0.025991415604948997 a2.3726449012756348,2.122062921524048 0 0 1 -1.856529712677002,0.7505261301994324 c-1.9976260662078857,0 -1.7711293697357178,-1.540903091430664 -1.4406670331954956,-2.919081926345825 c0.3416014611721039,-1.4379549026489258 0.371305912733078,-1.4512386322021484 0.7091943621635437,-2.1154208183288574 a2.5508716106414795,2.2814667224884033 0 0 1 2.2278354167938232,-1.2320584058761597 a1.485223650932312,1.3283648490905762 0 0 1 1.5037890672683716,0.8767208456993103 l0,0.023246387019753456 zm-3.772468090057373,2.988820791244507 c-0.3081839084625244,1.2885138988494873 -0.6200809478759766,2.5803489685058594 0.8837081789970398,2.5803489685058594 a1.7265725135803223,1.5442241430282593 0 0 0 1.4183887243270874,-0.6973915100097656 c0.3230361342430115,-0.4815322756767273 0.44556713104248047,-0.7638097405433655 0.8799950480461121,-2.583669662475586 c0.30447083711624146,-1.3084393739700317 -0.371305912733078,-1.7999345064163208 -1.1324831247329712,-1.7999345064163208 C70.95304870605469,42.98106384277344 70.55203247070312,44.555171966552734 70.33294677734375,45.4983024597168 z" fill="#231f20" id="svg_11"/>
      <path d="M78.14523315429688,48.72622299194336 L80.25796508789062,39.8527717590332 h2.7662291526794434 c1.555771827697754,0 2.2278354167938232,0.5612342357635498 1.856529712677002,2.1253836154937744 c-0.25248801708221436,1.0726547241210938 -0.62379390001297,1.8098970651626587 -1.949355959892273,2.118741989135742 l0,0.02656729705631733 c1.255014181137085,0.24242658913135529 1.410962462425232,1.022840976715088 1.1510483026504517,2.1419882774353027 c-0.371305912733078,1.5973587036132812 -1.4443800449371338,2.467437505722046 -3.10783052444458,2.467437505722046 zm1.0433696508407593,-0.6641824245452881 h1.3961102962493896 c1.459232211112976,0 2.2649662494659424,-0.4450022280216217 2.5768632888793945,-1.7467999458312988 c0.185652956366539,-0.7870562076568604 0.18193989992141724,-1.8630318641662598 -1.3329882621765137,-1.8630318641662598 h-1.7859814167022705 zm2.7031073570251465,-4.270693302154541 c1.26615309715271,0 1.856529712677002,-0.7770934104919434 2.0904524326324463,-1.7833298444747925 c0.34531450271606445,-1.4778059720993042 -0.5495327711105347,-1.5043734312057495 -1.255014181137085,-1.5043734312057495 h-1.7451378107070923 l-0.787168562412262,3.287703275680542 z" fill="#231f20" id="svg_12"/>
      <path d="M90.76963806152344,42.509490966796875 l-1.485223650932312,6.210105895996094 h-0.7129073739051819 l0.16337460279464722,-0.6874287724494934 h-0.029704472050070763 A2.632558822631836,2.3545267581939697 0 0 1 86.78923034667969,48.8524169921875 c-1.4369539022445679,0 -1.6151807308197021,-0.9364972114562988 -1.3701189756393433,-1.9427335262298584 l1.0396565198898315,-4.393566608428955 h0.828012228012085 l-1.0136651992797852,4.267372131347656 c-0.03713059052824974,0.17268742620944977 -0.389871209859848,1.4778059720993042 0.8057337999343872,1.4778059720993042 c1.1139177083969116,0 1.7339986562728882,-0.9331763982772827 1.8379642963409424,-1.364894986152649 l1.0396565198898315,-4.380283355712891 z" fill="#231f20" id="svg_13"/>
      <path d="M92.73013305664062,48.8524169921875 c-1.485223650932312,0 -1.9382169246673584,-0.6641824245452881 -1.6077547073364258,-1.9693008661270142 H91.98751831054688 c-0.20421826839447021,0.8501535058021545 -0.11510483920574188,1.418029546737671 0.9431170225143433,1.418029546737671 a1.3886841535568237,1.2420212030410767 0 0 0 1.4443800449371338,-1.0959010124206543 c0.371305912733078,-1.6272470951080322 -2.836777448654175,-1.2121330499649048 -2.3503665924072266,-3.2644565105438232 c0.27476638555526733,-1.1423938274383545 1.24758780002594,-1.5508660078048706 2.4617583751678467,-1.5508660078048706 c1.3775449991226196,0 1.6114675998687744,0.8501535058021545 1.3886841535568237,1.796613335609436 h-0.8094469904899597 c0.14109626412391663,-0.7837351560592651 0,-1.2054911851882935 -0.928264856338501,-1.2054911851882935 a1.2847185134887695,1.1490356922149658 0 0 0 -1.273579478263855,0.8966463208198547 c-0.371305912733078,1.5541868209838867 2.859055519104004,1.1357519626617432 2.3615059852600098,3.2146432399749756 C94.93197631835938,48.26130294799805 94.03712463378906,48.8524169921875 92.73013305664062,48.8524169921875 z" fill="#231f20" id="svg_14"/>
      <path d="M96.33551025390625,48.72622299194336 l1.485223650932312,-6.210105895996094 h0.824299156665802 l-1.485223650932312,6.210105895996094 zm1.7896946668624878,-7.9469428062438965 l0.226496621966362,-0.9331763982772827 h1.0136651992797852 l-0.2190704643726349,0.9331763982772827 z" fill="#231f20" id="svg_15"/>
      <path d="M99.88148498535156,48.72622299194336 H99.04234313964844 l1.485223650932312,-6.210105895996094 h0.8317252993583679 l-0.18193989992141724,0.7604888677597046 h0.025991415604948997 a2.5991413593292236,2.3246383666992188 0 0 1 1.8899471759796143,-0.8866835832595825 c1.7191466093063354,0 1.6300328969955444,1.1457147598266602 1.4332410097122192,1.9593381881713867 L103.49800109863281,48.72622299194336 h-0.824299156665802 l1.0248043537139893,-4.340432167053223 c0.17822684347629547,-0.7239588499069214 0.022278355434536934,-1.4047459363937378 -0.9431170225143433,-1.4047459363937378 c-0.742611825466156,0 -1.6040416955947876,0.4582858681678772 -1.9382169246673584,1.8464272022247314 z" fill="#231f20" id="svg_16"/>
      <path d="M106.66896057128906,45.77726745605469 l-0.11510483920574188,0.4815322756767273 c-0.20421826839447021,0.8567953109741211 -0.21164436638355255,1.9925473928451538 1.0953525304794312,1.9925473928451538 a1.819399118423462,1.6272470951080322 0 0 0 1.856529712677002,-1.4279922246932983 h0.8762818574905396 c-0.4641324281692505,1.5010522603988647 -1.485223650932312,2.0191147327423096 -2.8776209354400635,2.0191147327423096 c-1.1993181705474854,0 -2.290957450866699,-0.4350394606590271 -1.856529712677002,-2.3246383666992188 l0.371305912733078,-1.5242987871170044 c0.4270017743110657,-1.796613335609436 1.459232211112976,-2.623520851135254 3.011291265487671,-2.623520851135254 c2.394923210144043,0 2.0347564220428467,1.5375823974609375 1.5929023027420044,3.3873302936553955 zm3.2749180793762207,-0.5944432616233826 c0.33417534828186035,-1.3748575448989868 0.2784794270992279,-2.2017648220062256 -1.0433696508407593,-2.2017648220062256 s-1.7637032270431519,0.826907217502594 -2.094165325164795,2.2017648220062256 z" fill="#231f20" id="svg_17"/>
      <path d="M113.18537902832031,48.8524169921875 c-1.485223650932312,0 -1.930790662765503,-0.6641824245452881 -1.6077547073364258,-1.9693008661270142 H112.40934753417969 c-0.20421826839447021,0.8501535058021545 -0.11881788820028305,1.418029546737671 0.9431170225143433,1.418029546737671 a1.3849711418151855,1.238700270652771 0 0 0 1.4443800449371338,-1.0959010124206543 c0.371305912733078,-1.6272470951080322 -2.8404903411865234,-1.2121330499649048 -2.346653461456299,-3.2644565105438232 c0.2673402726650238,-1.1423938274383545 1.2438749074935913,-1.5508660078048706 2.45804500579834,-1.5508660078048706 c1.3738319873809814,0 1.6114675998687744,0.8501535058021545 1.3849711418151855,1.796613335609436 h-0.8057337999343872 c0.14109626412391663,-0.7837351560592651 0,-1.2054911851882935 -0.928264856338501,-1.2054911851882935 a1.2810055017471313,1.1457147598266602 0 0 0 -1.273579478263855,0.8966463208198547 c-0.371305912733078,1.5541868209838867 2.855342388153076,1.1357519626617432 2.357792377471924,3.2146432399749756 C115.37979125976562,48.26130294799805 114.48121643066406,48.8524169921875 113.18537902832031,48.8524169921875 z" fill="#231f20" id="svg_18"/>
      <path d="M118.44679260253906,48.8524169921875 c-1.5037890672683716,0 -1.9382169246673584,-0.6641824245452881 -1.6151807308197021,-1.9693008661270142 h0.842864453792572 c-0.20421826839447021,0.8501535058021545 -0.11510483920574188,1.418029546737671 0.9431170225143433,1.418029546737671 a1.3849711418151855,1.238700270652771 0 0 0 1.4443800449371338,-1.0959010124206543 c0.371305912733078,-1.6272470951080322 -2.836777448654175,-1.2121330499649048 -2.346653461456299,-3.2644565105438232 c0.2710533142089844,-1.1423938274383545 1.2438749074935913,-1.5508660078048706 2.4617583751678467,-1.5508660078048706 c1.3738319873809814,0 1.6114675998687744,0.8501535058021545 1.3849711418151855,1.796613335609436 h-0.8131600022315979 c0.1448093056678772,-0.7837351560592651 0,-1.2054911851882935 -0.924551784992218,-1.2054911851882935 a1.2810055017471313,1.1457147598266602 0 0 0 -1.273579478263855,0.8966463208198547 c-0.371305912733078,1.5541868209838867 2.855342388153076,1.1357519626617432 2.3652186393737793,3.2146432399749756 C120.63377380371094,48.26130294799805 119.74263000488281,48.8524169921875 118.44679260253906,48.8524169921875 z" fill="#231f20" id="svg_19"/>
      <path d="M130.6033477783203,39.8527717590332 h1.1881788969039917 l0.14109626412391663,7.787539958953857 h0.025991415604948997 L135.93157958984375,39.8527717590332 h0.8688558340072632 l-4.578202247619629,8.880119323730469 h-1.1547613143920898 l-0.11881788820028305,-7.897129535675049 h-0.025991415604948997 l-3.924703598022461,7.897129535675049 h-1.1139177083969116 L125.60926818847656,39.8527717590332 h0.9394039511680603 l0.13738319277763367,7.847314834594727 h0.033417534083127975 z" fill="#231f20" id="svg_20"/>
      <path d="M135.71621704101562,46.28868103027344 l0.371305912733078,-1.474484920501709 c0.185652956366539,-0.7870562076568604 0.5940894484519958,-2.4242660999298096 2.970447301864624,-2.4242660999298096 s2.005052089691162,1.6372097730636597 1.819399118423462,2.4242660999298096 l-0.3490275740623474,1.474484920501709 c-0.389871209859848,1.6172842979431152 -1.2327356338500977,2.563744306564331 -3.0038650035858154,2.563744306564331 S135.33375549316406,47.905967712402344 135.71621704101562,46.28868103027344 zm3.5274064540863037,1.1490356922149658 a10.396565437316895,9.298553466796875 0 0 0 0.5978025794029236,-1.8231807947158813 c0.4381409287452698,-1.8331434726715088 0.41957569122314453,-2.633483409881592 -0.9431170225143433,-2.633483409881592 s-1.7599900960922241,0.800339937210083 -2.194417953491211,2.633483409881592 a10.207200050354004,9.129188537597656 0 0 0 -0.2710533142089844,1.8231807947158813 c0.040843650698661804,0.1461201310157776 0.07054813206195831,0.8235862255096436 1.2141703367233276,0.8235862255096436 A1.685728907585144,1.507694125175476 0 0 0 139.24363708496094,47.437713623046875 z" fill="#231f20" id="svg_21"/>
      <path d="M143.7327117919922,43.34968185424805 h0.025991415604948997 a2.7031073570251465,2.417623996734619 0 0 1 2.146148443222046,-0.9597436785697937 l-0.17822684347629547,0.7505261301994324 a2.1275830268859863,1.902882695198059 0 0 0 -2.320662021636963,1.5873961448669434 l-0.9542562961578369,3.9850947856903076 H141.63111877441406 l1.485223650932312,-6.210105895996094 h0.824299156665802 z" fill="#231f20" id="svg_22"/>
      <path d="M145.40357971191406,48.72622299194336 L147.51632690429688,39.8527717590332 h0.824299156665802 l-2.1127307415008545,8.880119323730469 z" fill="#231f20" id="svg_23"/>
      <path d="M152.001708984375,47.9424934387207 l-0.029704472050070763,0 a2.4654712677001953,2.205085515975952 0 0 1 -1.9716345071792603,0.8966463208198547 c-2.0087647438049316,0 -1.6931549310684204,-1.7866508960723877 -1.3515536785125732,-3.237889528274536 c0.28219252824783325,-1.1955283880233765 0.764890193939209,-3.2246055603027344 2.8998992443084717,-3.2246055603027344 a1.6931549310684204,1.5143359899520874 0 0 1 1.485223650932312,0.7405633926391602 l0.022278355434536934,0 l0.787168562412262,-3.294344902038574 h0.824299156665802 L152.88169860839844,47.49085235595703 a9.174968719482422,8.205973625183105 0 0 0 -0.21164436638355255,1.228737711906433 h-0.7945947051048279 zm0.371305912733078,-1.763404369354248 l0.26362720131874084,-1.1058636903762817 c0.08540036529302597,-0.36862123012542725 0.4938368797302246,-2.092174768447876 -1.0582218170166016,-2.092174768447876 c-1.485223650932312,0 -1.7711293697357178,1.2054911851882935 -2.120156764984131,2.6567296981811523 c-0.5495327711105347,2.3246383666992188 0,2.623520851135254 0.8948473334312439,2.623520851135254 C151.14398193359375,48.26130294799805 152.02395629882812,47.693416595458984 152.3804168701172,46.17909240722656 z" fill="#231f20" id="svg_24"/>
      <path d="M155.04269409179688,42.509490966796875 h0.8799950480461121 l0.26362720131874084,5.4396538734436035 H156.22344970703125 L158.97482299804688,42.509490966796875 h1.0210912227630615 l0.2487749606370926,5.4396538734436035 h0.025991415604948997 L163.11489868164062,42.509490966796875 h0.828012228012085 l-3.3900232315063477,6.210105895996094 h-1.028517484664917 l-0.2673402726650238,-5.313459396362305 h-0.025991415604948997 l-2.7253854274749756,5.313459396362305 H155.4808349609375 z" fill="#231f20" id="svg_25"/>
      <path d="M163.5010528564453,48.72622299194336 l1.485223650932312,-6.210105895996094 h0.824299156665802 l-1.485223650932312,6.210105895996094 zm1.7896946668624878,-7.9469428062438965 L165.50608825683594,39.8527717590332 h1.0210912227630615 l-0.226496621966362,0.9331763982772827 z" fill="#231f20" id="svg_26"/>
      <path d="M170.0546112060547,47.9424934387207 l-0.029704472050070763,0 a2.4654712677001953,2.205085515975952 0 0 1 -1.9716345071792603,0.8966463208198547 c-2.0124781131744385,0 -1.6968681812286377,-1.7866508960723877 -1.3552666902542114,-3.2345685958862305 c0.28219252824783325,-1.1988492012023926 0.764890193939209,-3.22792649269104 2.8998992443084717,-3.22792649269104 a1.685728907585144,1.507694125175476 0 0 1 1.5037890672683716,0.7405633926391602 l0.025991415604948997,0 l0.783455491065979,-3.294344902038574 h0.824299156665802 l-1.819399118423462,7.638098239898682 a8.372947692871094,7.488656044006348 0 0 0 -0.20421826839447021,1.228737711906433 h-0.8020208477973938 zm0.371305912733078,-1.763404369354248 l0.2599141299724579,-1.1058636903762817 c0.08540036529302597,-0.36862123012542725 0.4975499212741852,-2.092174768447876 -1.0582218170166016,-2.092174768447876 c-1.485223650932312,0 -1.7674163579940796,1.2054911851882935 -2.120156764984131,2.6567296981811523 c-0.5458197593688965,2.3246383666992188 0,2.623520851135254 0.8948473334312439,2.623520851135254 C169.19317626953125,48.26130294799805 170.06942749023438,47.693416595458984 170.43333435058594,46.17909240722656 z" fill="#231f20" id="svg_27"/>
      <path d="M173.74908447265625,45.77726745605469 l-0.11139178276062012,0.4815322756767273 c-0.20793132483959198,0.8567953109741211 -0.21535742282867432,1.9925473928451538 1.0879263877868652,1.9925473928451538 a1.8268252611160278,1.633888840675354 0 0 0 1.856529712677002,-1.4279922246932983 h0.8688558340072632 c-0.45670631527900696,1.5010522603988647 -1.485223650932312,2.0191147327423096 -2.8739078044891357,2.0191147327423096 c-1.1956051588058472,0 -2.290957450866699,-0.4350394606590271 -1.856529712677002,-2.3246383666992188 l0.371305912733078,-1.5242987871170044 c0.4270017743110657,-1.796613335609436 1.4629453420639038,-2.623520851135254 3.022430419921875,-2.623520851135254 c2.394923210144043,0 2.0236172676086426,1.5375823974609375 1.5891894102096558,3.3873302936553955 zm3.2786312103271484,-0.5944432616233826 c0.32674920558929443,-1.3748575448989868 0.27476638555526733,-2.2017648220062256 -1.0470826625823975,-2.2017648220062256 s-1.7637032270431519,0.826907217502594 -2.094165325164795,2.2017648220062256 z" fill="#231f20" id="svg_28"/>
    </g>
  </g></g></svg>