<svg width="220" height="46" viewBox="0 0 220 46" fill="none" xmlns="http://www.w3.org/2000/svg">
<g clip-path="url(#clip0)">
<path d="M21.5174 31.2403C25.2983 31.2403 28.3634 28.193 28.3634 24.434C28.3634 20.675 25.2983 17.6277 21.5174 17.6277C17.7364 17.6277 14.6714 20.675 14.6714 24.434C14.6714 28.193 17.7364 31.2403 21.5174 31.2403Z" fill="#007BC1"/>
<path d="M41.0622 20.0907C41.9353 24.0044 41.6091 28.0904 40.1261 31.816C38.6431 35.5415 36.0721 38.7339 32.7482 40.977C29.4244 43.22 25.5018 44.4097 21.492 44.3909C17.4821 44.3721 13.571 43.1457 10.2683 40.8716C6.96562 38.5974 4.42468 35.3811 2.97668 31.6418C1.52868 27.9024 1.24079 23.8136 2.15055 19.9083C3.06031 16.0029 5.12552 12.4623 8.07695 9.74781C11.0284 7.03335 14.7291 5.27102 18.6968 4.69054C18.8665 5.27547 19.1807 5.80827 19.6105 6.23983C20.2951 6.91988 21.221 7.30155 22.186 7.30155C23.151 7.30155 24.0769 6.91988 24.7615 6.23983C25.3408 5.66377 25.7053 4.90672 25.7944 4.09466C25.9243 3.13414 25.6674 2.16134 25.0801 1.39027C24.4928 0.619204 23.6232 0.11302 22.6627 -0.0169217C21.7022 -0.146864 20.7294 0.11008 19.9583 0.697385C19.1873 1.28469 18.6811 2.15425 18.5511 3.11476C14.2608 3.70878 10.2491 5.58215 7.03946 8.49046C3.82984 11.3988 1.57133 15.207 0.558617 19.4182C-0.454099 23.6294 -0.174 28.0481 1.36237 32.0977C2.89874 36.1474 5.62004 39.6399 9.17121 42.1196C12.7224 44.5994 16.9385 45.9512 21.2695 45.9987C25.6006 46.0462 29.8453 44.7872 33.45 42.386C37.0547 39.9847 39.852 36.5527 41.4768 32.5377C43.1017 28.5228 43.4786 24.1113 42.5585 19.8789C41.6493 15.9417 39.616 12.3535 36.7056 9.55028C39.0232 12.6403 40.5218 16.2662 41.0622 20.0907ZM24.3113 3.90927C24.2736 4.40941 24.0574 4.87934 23.7022 5.23345C23.4102 5.52895 23.0388 5.73333 22.6329 5.82177C22.2271 5.91022 21.8042 5.87892 21.4158 5.73169C21.0274 5.58445 20.6901 5.32761 20.4448 4.99235C20.1996 4.65709 20.0569 4.25783 20.0342 3.84306C20.0198 3.54331 20.0676 3.24382 20.1748 2.96349C20.2819 2.68316 20.4459 2.42807 20.6566 2.21432C20.8549 2.01374 21.091 1.85449 21.3512 1.74581C21.6115 1.63712 21.8907 1.58116 22.1728 1.58116C22.4548 1.58116 22.734 1.63712 22.9943 1.74581C23.2546 1.85449 23.4907 2.01374 23.6889 2.21432C23.9119 2.433 24.0834 2.69854 24.191 2.99169C24.2987 3.28485 24.3398 3.59828 24.3113 3.90927Z" fill="#007BC1"/>
<path d="M69.9117 8.00535C69.944 8.62868 69.8289 9.25084 69.5759 9.82139C69.3228 10.3919 68.9388 10.8948 68.4551 11.2893C67.2367 12.1268 65.7729 12.5324 64.2972 12.4414H62.642V17.9632H61V3.90039H64.6415C68.1638 3.90039 69.9117 5.27754 69.9117 8.00535ZM62.642 11.0377H64.1118C65.2045 11.1219 66.2974 10.8775 67.2501 10.3359C67.583 10.0676 67.846 9.72277 68.0167 9.33076C68.1873 8.93875 68.2605 8.51125 68.23 8.0848C68.2603 7.68987 68.1928 7.29357 68.0334 6.93096C67.874 6.56834 67.6277 6.2506 67.3163 6.00584C66.4645 5.47983 65.4674 5.23866 64.4693 5.31726H62.642V11.0377Z" fill="#007BC1"/>
<path d="M81.7235 12.693C81.7974 14.1366 81.3246 15.555 80.3993 16.6655C79.947 17.156 79.3921 17.5408 78.7742 17.7926C78.1562 18.0443 77.4904 18.1569 76.8241 18.1221C75.9404 18.1376 75.0697 17.9084 74.3081 17.46C73.5706 17.0017 72.9818 16.3394 72.6132 15.5532C72.1982 14.6439 71.9945 13.6525 72.0173 12.6533C71.9574 11.2116 72.4286 9.79811 73.3415 8.68071C73.7952 8.19652 74.3488 7.81669 74.9638 7.56748C75.5788 7.31827 76.2407 7.20563 76.9035 7.23736C77.5607 7.20769 78.2163 7.32413 78.8231 7.5783C79.4299 7.83246 79.9727 8.21801 80.4126 8.7072C81.3351 9.82373 81.8032 11.2468 81.7235 12.693ZM73.6857 12.693C73.6114 13.7778 73.8951 14.8571 74.4935 15.7651C74.7928 16.0992 75.1592 16.3664 75.5688 16.5494C75.9783 16.7323 76.4218 16.8269 76.8704 16.8269C77.319 16.8269 77.7625 16.7323 78.172 16.5494C78.5816 16.3664 78.948 16.0992 79.2473 15.7651C79.8521 14.8595 80.1408 13.7795 80.0683 12.693C80.1428 11.6104 79.8539 10.5339 79.2473 9.63412C78.9425 9.3069 78.5735 9.04594 78.1635 8.86751C77.7534 8.68909 77.311 8.597 76.8638 8.597C76.4166 8.597 75.9742 8.68909 75.5641 8.86751C75.154 9.04594 74.7851 9.3069 74.4803 9.63412C73.8903 10.5404 73.6114 11.6141 73.6857 12.693Z" fill="#007BC1"/>
<path d="M93.1249 17.9632L91.1916 11.7793C91.0724 11.4085 90.834 10.5478 90.503 9.21036H90.4235C90.1719 10.3227 89.9468 11.1966 89.7614 11.8587L87.7619 17.9632H85.9213L83.0479 7.36975H84.7163C85.3917 10.0181 85.9213 12.0309 86.2656 13.4213C86.5289 14.3384 86.7324 15.2717 86.8747 16.2153H86.9542C87.0336 15.8577 87.1396 15.381 87.2985 14.7984C87.4574 14.2158 87.5898 13.7655 87.709 13.4742L89.6423 7.42272H91.3769L93.2573 13.4742C93.5636 14.3833 93.8069 15.3125 93.9856 16.255H94.065C94.1198 15.8935 94.195 15.5354 94.2901 15.1824C94.3961 14.7057 95.0714 12.1236 96.2897 7.42272H97.9449L95.0317 18.0162L93.1249 17.9632Z" fill="#007BC1"/>
<path d="M104.287 18.1619C103.606 18.198 102.924 18.0892 102.287 17.8427C101.65 17.5962 101.073 17.2176 100.593 16.7318C99.6434 15.635 99.1672 14.2065 99.2689 12.7592C99.2114 11.2937 99.6812 9.85603 100.593 8.70724C100.995 8.23122 101.499 7.85187 102.067 7.5974C102.636 7.34293 103.254 7.21988 103.877 7.2374C104.463 7.21359 105.048 7.31999 105.588 7.54895C106.128 7.77791 106.611 8.12374 107.002 8.56158C107.813 9.52004 108.229 10.7506 108.167 12.0045V13.0108H100.911C100.873 14.0337 101.207 15.0356 101.851 15.8313C102.177 16.1585 102.568 16.4128 103 16.5771C103.431 16.7415 103.893 16.8123 104.354 16.7847C105.511 16.7792 106.655 16.5405 107.717 16.0829V17.4998C107.208 17.7336 106.675 17.9112 106.128 18.0295C105.521 18.1364 104.904 18.1808 104.287 18.1619ZM103.851 8.56158C103.474 8.54635 103.098 8.61171 102.749 8.75329C102.399 8.89487 102.084 9.10941 101.825 9.38257C101.274 10.0285 100.952 10.8387 100.911 11.6866H106.419C106.473 10.8589 106.234 10.0386 105.744 9.36933C105.51 9.10023 105.218 8.88771 104.89 8.7478C104.562 8.60788 104.207 8.54421 103.851 8.56158Z" fill="#007BC1"/>
<path d="M115.689 7.23741C116.132 7.23117 116.576 7.26664 117.013 7.34335L116.801 8.82643C116.423 8.73874 116.037 8.68994 115.649 8.68077C115.228 8.68179 114.812 8.77614 114.432 8.95703C114.052 9.13792 113.717 9.40084 113.451 9.72687C112.842 10.4467 112.521 11.3666 112.55 12.309V17.9633H110.882V7.36983H112.206L112.378 9.32962H112.458C112.8 8.69717 113.285 8.15315 113.874 7.7406C114.415 7.39426 115.047 7.2189 115.689 7.23741Z" fill="#007BC1"/>
<path d="M133.631 17.9632H131.777L128.004 11.7793L124.15 17.9632H122.429L127.103 10.614L122.747 3.90039H124.547L128.043 9.47519L131.552 3.90039H133.3L128.944 10.5213L133.631 17.9632Z" fill="#007BC1"/>
<path d="M140.305 18.1619C139.658 18.1664 139.018 18.0356 138.425 17.7778C137.86 17.5172 137.372 17.1159 137.008 16.6126H136.889C136.966 17.192 137.006 17.7759 137.008 18.3605V22.7038H135.406V7.42275H136.73L136.955 8.86611H137.034C137.395 8.33467 137.888 7.90584 138.464 7.62138C139.041 7.35585 139.67 7.22455 140.305 7.23737C140.92 7.20823 141.532 7.32224 142.095 7.57042C142.658 7.8186 143.156 8.19415 143.549 8.66748C144.363 9.82696 144.764 11.2257 144.688 12.64C144.765 14.0585 144.354 15.4606 143.523 16.6126C143.15 17.1105 142.664 17.5113 142.103 17.781C141.543 18.0507 140.926 18.1813 140.305 18.1619ZM140.08 8.56155C139.646 8.52348 139.21 8.5848 138.804 8.74084C138.398 8.89688 138.033 9.14352 137.736 9.46199C137.19 10.3065 136.934 11.306 137.008 12.309V12.6665C136.913 13.7717 137.168 14.8786 137.736 15.8313C138.028 16.1698 138.397 16.4341 138.811 16.6021C139.226 16.7702 139.674 16.8373 140.12 16.7979C140.541 16.8115 140.958 16.7162 141.331 16.5214C141.705 16.3265 142.022 16.0387 142.252 15.6856C142.82 14.7753 143.093 13.7115 143.033 12.64C143.099 11.5763 142.825 10.5191 142.252 9.62089C142.007 9.27715 141.68 9.00014 141.3 8.81512C140.921 8.63009 140.501 8.54292 140.08 8.56155Z" fill="#007BC1"/>
<path d="M151.932 18.1619C151.25 18.198 150.568 18.0892 149.931 17.8427C149.294 17.5962 148.717 17.2176 148.237 16.7318C147.287 15.635 146.811 14.2065 146.913 12.7592C146.855 11.2936 147.325 9.85602 148.237 8.70723C148.637 8.23298 149.139 7.8547 149.705 7.6003C150.271 7.3459 150.887 7.22188 151.508 7.23739C152.096 7.2116 152.683 7.31703 153.226 7.54605C153.769 7.77508 154.254 8.12196 154.646 8.56157C155.447 9.52458 155.859 10.7531 155.798 12.0044V13.0108H148.581C148.538 14.0345 148.872 15.0385 149.522 15.8313C149.847 16.1585 150.239 16.4127 150.67 16.5771C151.102 16.7415 151.563 16.8123 152.024 16.7847C153.181 16.7778 154.325 16.5391 155.388 16.0829V17.4998C154.874 17.7337 154.337 17.9113 153.785 18.0295C153.174 18.1377 152.552 18.1821 151.932 18.1619ZM151.495 8.56157C151.118 8.54634 150.742 8.6117 150.393 8.75328C150.044 8.89486 149.728 9.1094 149.469 9.38256C148.93 10.0284 148.618 10.8332 148.581 11.6734H154.09C154.144 10.8457 153.905 10.0254 153.415 9.35608C153.176 9.08652 152.879 8.87487 152.546 8.73721C152.214 8.59954 151.854 8.53948 151.495 8.56157Z" fill="#007BC1"/>
<path d="M163.333 7.23738C163.776 7.23183 164.22 7.26729 164.657 7.34331L164.432 8.8264C164.054 8.73871 163.668 8.6899 163.28 8.68074C162.861 8.68279 162.448 8.77767 162.07 8.95855C161.692 9.13944 161.359 9.40183 161.095 9.72684C160.476 10.4421 160.15 11.364 160.181 12.309V17.9632H158.592V7.3698H159.916L160.102 9.32958H160.181C160.524 8.69714 161.009 8.15312 161.598 7.74057C162.115 7.40719 162.718 7.23227 163.333 7.23738Z" fill="#007BC1"/>
<path d="M169.967 16.8377C170.242 16.8425 170.517 16.8203 170.788 16.7715L171.41 16.6523V17.8308C171.163 17.9301 170.905 18.0012 170.642 18.0427C170.344 18.0926 170.043 18.1192 169.742 18.1221C167.702 18.1221 166.683 17.0495 166.683 14.8911V8.66749H165.173V7.89946L166.683 7.23737L167.358 4.98627H168.272V7.42276H171.331V8.66749H168.272V14.8646C168.241 15.3927 168.401 15.9141 168.722 16.3345C168.881 16.5034 169.074 16.6359 169.289 16.7227C169.504 16.8096 169.735 16.8488 169.967 16.8377Z" fill="#007BC1"/>
<path d="M178.707 3.90042H183.09C184.588 3.79479 186.088 4.09197 187.433 4.76114C187.866 5.0479 188.217 5.44348 188.449 5.90827C188.682 6.37306 188.788 6.89075 188.757 7.4095C188.791 8.14484 188.581 8.87081 188.161 9.47522C187.977 9.73509 187.743 9.9556 187.472 10.1238C187.201 10.2921 186.9 10.4047 186.585 10.4551V10.5478C187.344 10.6693 188.032 11.0651 188.519 11.6601C188.94 12.3033 189.144 13.0643 189.101 13.8318C189.134 14.4018 189.031 14.9713 188.8 15.4938C188.57 16.0163 188.22 16.4768 187.777 16.8377C186.67 17.6082 185.337 17.9858 183.99 17.9102H178.693L178.707 3.90042ZM181.686 9.47522H183.421C184.031 9.52241 184.642 9.39374 185.182 9.10445C185.369 8.95902 185.517 8.76885 185.612 8.55136C185.707 8.33388 185.746 8.09606 185.725 7.85972C185.743 7.62931 185.698 7.39826 185.592 7.19244C185.487 6.98663 185.327 6.81419 185.129 6.69444C184.543 6.43046 183.903 6.31232 183.262 6.35015H181.686V9.47522ZM181.686 11.8455V15.5002H183.633C184.272 15.5486 184.909 15.3858 185.447 15.0368C185.652 14.8595 185.813 14.6366 185.916 14.3859C186.02 14.1353 186.063 13.8638 186.043 13.5934C186.043 12.4281 185.208 11.8455 183.54 11.8455H181.686Z" fill="#007BC1"/>
<path d="M194.649 17.9632H191.71V3H194.649V17.9632Z" fill="#007BC1"/>
<path d="M205.335 17.9632L204.938 16.639H204.793C204.469 17.1442 204.01 17.548 203.468 17.8043C202.848 18.0826 202.175 18.2226 201.495 18.2148C200.974 18.2514 200.451 18.1797 199.959 18.0042C199.466 17.8287 199.016 17.5533 198.635 17.1952C197.952 16.3844 197.61 15.3399 197.682 14.282V7.23737H200.608V13.514C200.569 14.1244 200.712 14.7325 201.019 15.2619C201.172 15.463 201.374 15.622 201.606 15.7239C201.837 15.8258 202.091 15.8673 202.343 15.8445C202.685 15.8764 203.029 15.8172 203.341 15.673C203.652 15.5288 203.92 15.3047 204.117 15.0235C204.555 14.1847 204.748 13.2392 204.673 12.2957V7.23737H207.6V17.9632H205.335Z" fill="#007BC1"/>
<path d="M215.532 18.1619C214.792 18.2065 214.051 18.1016 213.353 17.8536C212.654 17.6057 212.013 17.2196 211.467 16.7186C210.961 16.1777 210.571 15.5395 210.321 14.8427C210.07 14.146 209.965 13.4055 210.01 12.6666C209.905 11.1584 210.379 9.66686 211.334 8.4954C212.314 7.57516 213.597 7.04762 214.941 7.01343C216.284 6.97924 217.593 7.44078 218.617 8.31001C219.067 8.78922 219.416 9.35372 219.643 9.97011C219.871 10.5865 219.972 11.2422 219.942 11.8985V13.3154H213.003C213 14.0378 213.264 14.7359 213.744 15.2752C214.005 15.5168 214.312 15.7035 214.646 15.8241C214.981 15.9447 215.336 15.9967 215.691 15.977C216.31 15.9801 216.927 15.9134 217.532 15.7784C218.151 15.6187 218.754 15.4015 219.332 15.1295V17.3939C218.813 17.6586 218.261 17.8545 217.69 17.9765C216.979 18.1104 216.256 18.1725 215.532 18.1619ZM215.122 9.10452C214.849 9.09172 214.577 9.13706 214.324 9.23752C214.07 9.33798 213.841 9.49126 213.652 9.68716C213.27 10.1651 213.06 10.7573 213.056 11.3689H217.161C217.188 10.7591 216.99 10.1606 216.605 9.68716C216.412 9.49159 216.18 9.33868 215.925 9.23831C215.669 9.13794 215.396 9.09236 215.122 9.10452Z" fill="#007BC1"/>
<rect x="60" y="28" width="70" height="18" rx="4" fill="#007BC1"/>
<path d="M70.9824 42L70.0557 39.4229H66.5073L65.5996 42H64L67.4722 32.6816H69.1226L72.5947 42H70.9824ZM69.6558 38.1152L68.7861 35.5889C68.7227 35.4196 68.6338 35.153 68.5195 34.7891C68.4095 34.4251 68.3333 34.1585 68.291 33.9893C68.1768 34.5098 68.0096 35.0789 67.7896 35.6968L66.9517 38.1152H69.6558ZM81.5513 42H79.6914L75.1274 34.605H75.0767L75.1084 35.0176C75.1676 35.8047 75.1973 36.5241 75.1973 37.1758V42H73.8198V32.7197H75.6606L80.2119 40.0767H80.25C80.2415 39.9793 80.2246 39.626 80.1992 39.0166C80.1738 38.403 80.1611 37.9248 80.1611 37.582V32.7197H81.5513V42ZM87.7974 36.9663H91.2124V41.6255C90.6538 41.8075 90.1164 41.9365 89.6001 42.0127C89.0881 42.0889 88.5337 42.127 87.937 42.127C86.5321 42.127 85.4487 41.7122 84.687 40.8828C83.9253 40.0492 83.5444 38.8748 83.5444 37.3599C83.5444 35.866 83.974 34.6981 84.833 33.856C85.6921 33.0096 86.8748 32.5864 88.3813 32.5864C89.3504 32.5864 90.2687 32.7726 91.1362 33.145L90.603 34.4082C89.8498 34.0612 89.0965 33.8877 88.3433 33.8877C87.353 33.8877 86.5701 34.1987 85.9946 34.8208C85.4191 35.4429 85.1313 36.2935 85.1313 37.3726C85.1313 38.5067 85.3895 39.37 85.9058 39.9624C86.4263 40.5506 87.1732 40.8447 88.1465 40.8447C88.6374 40.8447 89.1621 40.7834 89.7207 40.6606V38.2676H87.7974V36.9663ZM100.721 32.7197V38.7246C100.721 39.4102 100.573 40.0111 100.277 40.5273C99.9849 41.0394 99.5596 41.4351 99.001 41.7144C98.4466 41.9894 97.7822 42.127 97.0078 42.127C95.8568 42.127 94.9618 41.8223 94.3228 41.2129C93.6838 40.6035 93.3643 39.7656 93.3643 38.6992V32.7197H94.8877V38.5913C94.8877 39.3573 95.0654 39.9222 95.4209 40.2861C95.7764 40.6501 96.3223 40.832 97.0586 40.832C98.4889 40.832 99.2041 40.0809 99.2041 38.5786V32.7197H100.721ZM103.095 42V32.7197H104.612V40.6987H108.542V42H103.095ZM115.898 42L114.972 39.4229H111.423L110.516 42H108.916L112.388 32.6816H114.039L117.511 42H115.898ZM114.572 38.1152L113.702 35.5889C113.639 35.4196 113.55 35.153 113.436 34.7891C113.326 34.4251 113.249 34.1585 113.207 33.9893C113.093 34.5098 112.926 35.0789 112.706 35.6968L111.868 38.1152H114.572ZM120.253 37.0361H121.307C122.013 37.0361 122.525 36.9049 122.843 36.6426C123.16 36.3802 123.319 35.9909 123.319 35.4746C123.319 34.9499 123.147 34.5732 122.805 34.3447C122.462 34.1162 121.946 34.002 121.256 34.002H120.253V37.0361ZM120.253 38.293V42H118.736V32.7197H121.357C122.555 32.7197 123.442 32.944 124.017 33.3926C124.593 33.8411 124.88 34.5182 124.88 35.4238C124.88 36.5791 124.279 37.4022 123.078 37.8931L125.699 42H123.973L121.751 38.293H120.253Z" fill="white"/>
<path d="M144.982 42L144.056 39.4229H140.507L139.6 42H138L141.472 32.6816H143.123L146.595 42H144.982ZM143.656 38.1152L142.786 35.5889C142.723 35.4196 142.634 35.153 142.52 34.7891C142.41 34.4251 142.333 34.1585 142.291 33.9893C142.177 34.5098 142.01 35.0789 141.79 35.6968L140.952 38.1152H143.656ZM147.82 42V32.7197H149.337V40.6987H153.266V42H147.82ZM161.01 35.5254C161.01 36.4945 160.693 37.2371 160.058 37.7534C159.423 38.2697 158.52 38.5278 157.348 38.5278H156.383V42H154.866V32.7197H157.538C158.698 32.7197 159.565 32.9567 160.141 33.4307C160.72 33.9046 161.01 34.6029 161.01 35.5254ZM156.383 37.252H157.189C157.968 37.252 158.539 37.1165 158.903 36.8457C159.267 36.5749 159.449 36.1517 159.449 35.5762C159.449 35.043 159.286 34.6452 158.96 34.3828C158.634 34.1204 158.126 33.9893 157.437 33.9893H156.383V37.252ZM170.183 42H168.659V37.8169H164.381V42H162.864V32.7197H164.381V36.5156H168.659V32.7197H170.183V42ZM178.384 42L177.457 39.4229H173.909L173.001 42H171.401L174.874 32.6816H176.524L179.996 42H178.384ZM177.057 38.1152L176.188 35.5889C176.124 35.4196 176.035 35.153 175.921 34.7891C175.811 34.4251 175.735 34.1585 175.692 33.9893C175.578 34.5098 175.411 35.0789 175.191 35.6968L174.353 38.1152H177.057Z" fill="#007BC1"/>
</g>
<defs>
<clipPath id="clip0">
<rect width="220" height="46" fill="white"/>
</clipPath>
</defs>
</svg>
