<svg width="220" height="46" viewBox="0 0 220 46" fill="none" xmlns="http://www.w3.org/2000/svg">
<g clip-path="url(#clip0_503_74114)">
<path d="M21.5174 31.2403C25.2983 31.2403 28.3634 28.193 28.3634 24.434C28.3634 20.675 25.2983 17.6277 21.5174 17.6277C17.7364 17.6277 14.6714 20.675 14.6714 24.434C14.6714 28.193 17.7364 31.2403 21.5174 31.2403Z" fill="#007BC1"/>
<path d="M41.0622 20.0907C41.9353 24.0044 41.6091 28.0904 40.1261 31.816C38.6431 35.5415 36.0721 38.7339 32.7482 40.977C29.4244 43.22 25.5018 44.4097 21.492 44.3909C17.4821 44.3721 13.571 43.1457 10.2683 40.8716C6.96562 38.5974 4.42468 35.3811 2.97668 31.6418C1.52868 27.9024 1.24079 23.8136 2.15055 19.9083C3.06031 16.0029 5.12552 12.4623 8.07695 9.74781C11.0284 7.03335 14.7291 5.27102 18.6968 4.69054C18.8665 5.27547 19.1807 5.80827 19.6105 6.23983C20.2951 6.91988 21.221 7.30155 22.186 7.30155C23.151 7.30155 24.0769 6.91988 24.7615 6.23983C25.3408 5.66377 25.7053 4.90672 25.7944 4.09466C25.9243 3.13414 25.6674 2.16134 25.0801 1.39027C24.4928 0.619204 23.6232 0.11302 22.6627 -0.0169215C21.7022 -0.146864 20.7294 0.11008 19.9583 0.697385C19.1873 1.28469 18.6811 2.15425 18.5511 3.11476C14.2608 3.70878 10.2491 5.58215 7.03946 8.49046C3.82984 11.3988 1.57133 15.207 0.558617 19.4182C-0.454099 23.6294 -0.174 28.0481 1.36237 32.0977C2.89874 36.1474 5.62004 39.6399 9.17121 42.1196C12.7224 44.5994 16.9385 45.9512 21.2695 45.9987C25.6006 46.0462 29.8453 44.7872 33.45 42.386C37.0547 39.9847 39.852 36.5527 41.4768 32.5377C43.1017 28.5228 43.4786 24.1113 42.5585 19.8789C41.6493 15.9417 39.616 12.3535 36.7056 9.55028C39.0232 12.6403 40.5218 16.2662 41.0622 20.0907ZM24.3113 3.90927C24.2736 4.40941 24.0574 4.87934 23.7022 5.23345C23.4102 5.52895 23.0388 5.73333 22.6329 5.82177C22.2271 5.91022 21.8042 5.87892 21.4158 5.73169C21.0274 5.58445 20.6901 5.32761 20.4448 4.99235C20.1996 4.65709 20.0569 4.25783 20.0342 3.84306C20.0198 3.54331 20.0676 3.24382 20.1748 2.96349C20.2819 2.68316 20.4459 2.42807 20.6566 2.21432C20.8549 2.01374 21.091 1.85449 21.3512 1.74581C21.6115 1.63712 21.8907 1.58116 22.1728 1.58116C22.4548 1.58116 22.734 1.63712 22.9943 1.74581C23.2546 1.85449 23.4907 2.01374 23.6889 2.21432C23.9119 2.433 24.0834 2.69854 24.191 2.99169C24.2987 3.28485 24.3398 3.59828 24.3113 3.90927Z" fill="#007BC1"/>
<path d="M126 28H64C61.7909 28 60 29.7909 60 32V42C60 44.2091 61.7909 46 64 46H126C128.209 46 130 44.2091 130 42V32C130 29.7909 128.209 28 126 28Z" fill="#007BC1"/>
<path d="M70.9824 42L70.0557 39.4229H66.5073L65.5996 42H64L67.4722 32.6816H69.1226L72.5947 42H70.9824ZM69.6558 38.1152L68.7861 35.5889C68.7227 35.4196 68.6338 35.153 68.5195 34.7891C68.4095 34.4251 68.3333 34.1585 68.291 33.9893C68.1768 34.5098 68.0096 35.0789 67.7896 35.6968L66.9517 38.1152H69.6558ZM81.5513 42H79.6914L75.1274 34.605H75.0767L75.1084 35.0176C75.1676 35.8047 75.1973 36.5241 75.1973 37.1758V42H73.8198V32.7197H75.6606L80.2119 40.0767H80.25C80.2415 39.9793 80.2246 39.626 80.1992 39.0166C80.1738 38.403 80.1611 37.9248 80.1611 37.582V32.7197H81.5513V42ZM87.7974 36.9663H91.2124V41.6255C90.6538 41.8075 90.1164 41.9365 89.6001 42.0127C89.0881 42.0889 88.5337 42.127 87.937 42.127C86.5321 42.127 85.4487 41.7122 84.687 40.8828C83.9253 40.0492 83.5444 38.8748 83.5444 37.3599C83.5444 35.866 83.974 34.6981 84.833 33.856C85.6921 33.0096 86.8748 32.5864 88.3813 32.5864C89.3504 32.5864 90.2687 32.7726 91.1362 33.145L90.603 34.4082C89.8498 34.0612 89.0965 33.8877 88.3433 33.8877C87.353 33.8877 86.5701 34.1987 85.9946 34.8208C85.4191 35.4429 85.1313 36.2935 85.1313 37.3726C85.1313 38.5067 85.3895 39.37 85.9058 39.9624C86.4263 40.5506 87.1732 40.8447 88.1465 40.8447C88.6374 40.8447 89.1621 40.7834 89.7207 40.6606V38.2676H87.7974V36.9663ZM100.721 32.7197V38.7246C100.721 39.4102 100.573 40.0111 100.277 40.5273C99.9849 41.0394 99.5596 41.4351 99.001 41.7144C98.4466 41.9894 97.7822 42.127 97.0078 42.127C95.8568 42.127 94.9618 41.8223 94.3228 41.2129C93.6838 40.6035 93.3643 39.7656 93.3643 38.6992V32.7197H94.8877V38.5913C94.8877 39.3573 95.0654 39.9222 95.4209 40.2861C95.7764 40.6501 96.3223 40.832 97.0586 40.832C98.4889 40.832 99.2041 40.0809 99.2041 38.5786V32.7197H100.721ZM103.095 42V32.7197H104.612V40.6987H108.542V42H103.095ZM115.898 42L114.972 39.4229H111.423L110.516 42H108.916L112.388 32.6816H114.039L117.511 42H115.898ZM114.572 38.1152L113.702 35.5889C113.639 35.4196 113.55 35.153 113.436 34.7891C113.326 34.4251 113.249 34.1585 113.207 33.9893C113.093 34.5098 112.926 35.0789 112.706 35.6968L111.868 38.1152H114.572ZM120.253 37.0361H121.307C122.013 37.0361 122.525 36.9049 122.843 36.6426C123.16 36.3802 123.319 35.9909 123.319 35.4746C123.319 34.9499 123.147 34.5732 122.805 34.3447C122.462 34.1162 121.946 34.002 121.256 34.002H120.253V37.0361ZM120.253 38.293V42H118.736V32.7197H121.357C122.555 32.7197 123.442 32.944 124.017 33.3926C124.593 33.8411 124.88 34.5182 124.88 35.4238C124.88 36.5791 124.279 37.4022 123.078 37.8931L125.699 42H123.973L121.751 38.293H120.253Z" fill="white"/>
<path d="M139.225 32.7197H141.98C143.258 32.7197 144.181 32.9059 144.748 33.2783C145.319 33.6507 145.604 34.2389 145.604 35.043C145.604 35.5846 145.465 36.0353 145.186 36.395C144.906 36.7547 144.504 36.9811 143.979 37.0742V37.1377C144.631 37.2604 145.109 37.5037 145.414 37.8677C145.723 38.2274 145.877 38.7161 145.877 39.334C145.877 40.1676 145.585 40.8215 145.001 41.2954C144.422 41.7651 143.613 42 142.577 42H139.225V32.7197ZM140.742 36.5537H142.202C142.837 36.5537 143.3 36.4543 143.592 36.2554C143.884 36.0522 144.03 35.7095 144.03 35.2271C144.03 34.7912 143.872 34.4759 143.554 34.2812C143.241 34.0866 142.742 33.9893 142.056 33.9893H140.742V36.5537ZM140.742 37.7852V40.7241H142.354C142.989 40.7241 143.467 40.6035 143.789 40.3623C144.115 40.1169 144.278 39.7318 144.278 39.207C144.278 38.7246 144.113 38.367 143.783 38.1343C143.453 37.9015 142.951 37.7852 142.278 37.7852H140.742ZM153.057 42H147.807V32.7197H153.057V34.002H149.324V36.5283H152.822V37.7979H149.324V40.7114H153.057V42ZM158.274 42H156.757V34.021H154.028V32.7197H161.004V34.021H158.274V42ZM168.189 42L167.263 39.4229H163.714L162.807 42H161.207L164.679 32.6816H166.33L169.802 42H168.189ZM166.863 38.1152L165.993 35.5889C165.93 35.4196 165.841 35.153 165.727 34.7891C165.617 34.4251 165.54 34.1585 165.498 33.9893C165.384 34.5098 165.217 35.0789 164.997 35.6968L164.159 38.1152H166.863Z" fill="#007BC1"/>
<path d="M61.4854 17V4.20312H65.6689C67.0576 4.20312 68.1006 4.49023 68.7979 5.06445C69.501 5.63867 69.8525 6.48828 69.8525 7.61328C69.8525 8.21094 69.6826 8.74121 69.3428 9.2041C69.0029 9.66113 68.54 10.0156 67.9541 10.2676C68.6455 10.4609 69.1904 10.8301 69.5889 11.375C69.9932 11.9141 70.1953 12.5586 70.1953 13.3086C70.1953 14.457 69.8232 15.3594 69.0791 16.0156C68.335 16.6719 67.2832 17 65.9238 17H61.4854ZM63.1729 11.0146V15.6201H65.959C66.7441 15.6201 67.3623 15.418 67.8135 15.0137C68.2705 14.6035 68.499 14.041 68.499 13.3262C68.499 11.7852 67.6611 11.0146 65.9854 11.0146H63.1729ZM63.1729 9.66113H65.7217C66.46 9.66113 67.0488 9.47656 67.4883 9.10742C67.9336 8.73828 68.1562 8.2373 68.1562 7.60449C68.1562 6.90137 67.9512 6.3916 67.541 6.0752C67.1309 5.75293 66.5068 5.5918 65.6689 5.5918H63.1729V9.66113ZM77.042 8.94922C76.7959 8.9082 76.5293 8.8877 76.2422 8.8877C75.1758 8.8877 74.4521 9.3418 74.0713 10.25V17H72.4453V7.49023H74.0273L74.0537 8.58887C74.5869 7.73926 75.3428 7.31445 76.3213 7.31445C76.6377 7.31445 76.8779 7.35547 77.042 7.4375V8.94922ZM80.3115 17H78.6855V7.49023H80.3115V17ZM78.5537 4.96777C78.5537 4.7041 78.6328 4.48145 78.791 4.2998C78.9551 4.11816 79.1953 4.02734 79.5117 4.02734C79.8281 4.02734 80.0684 4.11816 80.2324 4.2998C80.3965 4.48145 80.4785 4.7041 80.4785 4.96777C80.4785 5.23145 80.3965 5.45117 80.2324 5.62695C80.0684 5.80273 79.8281 5.89062 79.5117 5.89062C79.1953 5.89062 78.9551 5.80273 78.791 5.62695C78.6328 5.45117 78.5537 5.23145 78.5537 4.96777ZM82.5352 12.166C82.5352 10.6836 82.8779 9.50586 83.5635 8.63281C84.249 7.75391 85.1572 7.31445 86.2881 7.31445C87.4482 7.31445 88.3535 7.72461 89.0039 8.54492L89.083 7.49023H90.5684V16.7715C90.5684 18.002 90.2021 18.9717 89.4697 19.6807C88.7432 20.3896 87.7646 20.7441 86.5342 20.7441C85.8486 20.7441 85.1777 20.5977 84.5215 20.3047C83.8652 20.0117 83.3643 19.6104 83.0186 19.1006L83.8623 18.125C84.5596 18.9863 85.4121 19.417 86.4199 19.417C87.2109 19.417 87.8262 19.1943 88.2656 18.749C88.7109 18.3037 88.9336 17.6768 88.9336 16.8682V16.0508C88.2832 16.8008 87.3955 17.1758 86.2705 17.1758C85.1572 17.1758 84.2549 16.7275 83.5635 15.8311C82.8779 14.9346 82.5352 13.7129 82.5352 12.166ZM84.1699 12.3506C84.1699 13.4229 84.3896 14.2666 84.8291 14.8818C85.2686 15.4912 85.8838 15.7959 86.6748 15.7959C87.7002 15.7959 88.4531 15.3301 88.9336 14.3984V10.0566C88.4355 9.14844 87.6885 8.69434 86.6924 8.69434C85.9014 8.69434 85.2832 9.00195 84.8379 9.61719C84.3926 10.2324 84.1699 11.1436 84.1699 12.3506ZM94.6553 8.6416C95.376 7.75684 96.3135 7.31445 97.4678 7.31445C99.4775 7.31445 100.491 8.44824 100.509 10.7158V17H98.8828V10.707C98.877 10.0215 98.7188 9.51465 98.4082 9.18652C98.1035 8.8584 97.626 8.69434 96.9756 8.69434C96.4482 8.69434 95.9854 8.83496 95.5869 9.11621C95.1885 9.39746 94.8779 9.7666 94.6553 10.2236V17H93.0293V3.5H94.6553V8.6416ZM105.149 5.1875V7.49023H106.925V8.74707H105.149V14.6445C105.149 15.0254 105.229 15.3125 105.387 15.5059C105.545 15.6934 105.814 15.7871 106.195 15.7871C106.383 15.7871 106.641 15.752 106.969 15.6816V17C106.541 17.1172 106.125 17.1758 105.721 17.1758C104.994 17.1758 104.446 16.9561 104.077 16.5166C103.708 16.0771 103.523 15.4531 103.523 14.6445V8.74707H101.792V7.49023H103.523V5.1875H105.149ZM110.599 17H108.973V3.5H110.599V17ZM119.08 17C118.986 16.8125 118.91 16.4785 118.852 15.998C118.096 16.7832 117.193 17.1758 116.145 17.1758C115.207 17.1758 114.437 16.9121 113.833 16.3848C113.235 15.8516 112.937 15.1777 112.937 14.3633C112.937 13.373 113.312 12.6055 114.062 12.0605C114.817 11.5098 115.878 11.2344 117.243 11.2344H118.825V10.4873C118.825 9.91895 118.655 9.46777 118.315 9.13379C117.976 8.79395 117.475 8.62402 116.812 8.62402C116.232 8.62402 115.746 8.77051 115.354 9.06348C114.961 9.35645 114.765 9.71094 114.765 10.127H113.13C113.13 9.65234 113.297 9.19531 113.631 8.75586C113.971 8.31055 114.428 7.95898 115.002 7.70117C115.582 7.44336 116.218 7.31445 116.909 7.31445C118.005 7.31445 118.863 7.58984 119.484 8.14062C120.105 8.68555 120.428 9.43848 120.451 10.3994V14.7764C120.451 15.6494 120.562 16.3438 120.785 16.8594V17H119.08ZM116.382 15.7607C116.892 15.7607 117.375 15.6289 117.832 15.3652C118.289 15.1016 118.62 14.7588 118.825 14.3369V12.3857H117.551C115.559 12.3857 114.562 12.9688 114.562 14.1348C114.562 14.6445 114.732 15.043 115.072 15.3301C115.412 15.6172 115.849 15.7607 116.382 15.7607ZM125.971 14.6182L128.186 7.49023H129.926L126.103 18.4678C125.511 20.0498 124.57 20.8408 123.281 20.8408L122.974 20.8145L122.367 20.7002V19.3818L122.807 19.417C123.357 19.417 123.785 19.3057 124.09 19.083C124.4 18.8604 124.655 18.4531 124.854 17.8613L125.215 16.8945L121.822 7.49023H123.598L125.971 14.6182ZM135.208 17.1758C133.919 17.1758 132.87 16.7539 132.062 15.9102C131.253 15.0605 130.849 13.9268 130.849 12.5088V12.21C130.849 11.2666 131.027 10.4258 131.385 9.6875C131.748 8.94336 132.252 8.36328 132.896 7.94727C133.547 7.52539 134.25 7.31445 135.006 7.31445C136.242 7.31445 137.203 7.72168 137.889 8.53613C138.574 9.35059 138.917 10.5166 138.917 12.0342V12.7109H132.475C132.498 13.6484 132.771 14.4072 133.292 14.9873C133.819 15.5615 134.487 15.8486 135.296 15.8486C135.87 15.8486 136.356 15.7314 136.755 15.4971C137.153 15.2627 137.502 14.9521 137.801 14.5654L138.794 15.3389C137.997 16.5635 136.802 17.1758 135.208 17.1758ZM135.006 8.65039C134.35 8.65039 133.799 8.89062 133.354 9.37109C132.908 9.8457 132.633 10.5137 132.527 11.375H137.291V11.252C137.244 10.4258 137.021 9.78711 136.623 9.33594C136.225 8.87891 135.686 8.65039 135.006 8.65039ZM145.403 8.94922C145.157 8.9082 144.891 8.8877 144.604 8.8877C143.537 8.8877 142.813 9.3418 142.433 10.25V17H140.807V7.49023H142.389L142.415 8.58887C142.948 7.73926 143.704 7.31445 144.683 7.31445C144.999 7.31445 145.239 7.35547 145.403 7.4375V8.94922ZM160.969 4.20312V12.6318C160.969 14.0322 160.529 15.1396 159.65 15.9541C158.777 16.7686 157.582 17.1758 156.064 17.1758C154.57 17.1758 153.384 16.7803 152.505 15.9893C151.626 15.1982 151.178 14.1113 151.16 12.7285V4.20312H153.797V12.6494C153.797 13.4873 153.996 14.0996 154.395 14.4863C154.799 14.8672 155.355 15.0576 156.064 15.0576C157.547 15.0576 158.3 14.2783 158.323 12.7197V4.20312H160.969ZM165.935 17H163.298V4.20312H165.935V17Z" fill="#007BC1"/>
</g>
<defs>
<clipPath id="clip0_503_74114">
<rect width="220" height="46" fill="white"/>
</clipPath>
</defs>
</svg>
