<svg width="771" height="771" viewBox="0 0 771 771" fill="none" xmlns="http://www.w3.org/2000/svg">
<g clip-path="url(#clip0)">
<g opacity="0.1">
<path d="M385.28 385.199C407.38 363.099 407.38 327.268 385.28 305.168C363.18 283.069 327.349 283.069 305.25 305.168C283.15 327.268 283.15 363.099 305.25 385.199C327.349 407.299 363.18 407.299 385.28 385.199Z" stroke="white" stroke-width="1.5" stroke-miterlimit="10"/>
<path d="M465.309 465.229C487.409 443.129 487.409 407.298 465.309 385.198C443.21 363.098 407.379 363.098 385.279 385.198C363.179 407.298 363.179 443.129 385.279 465.229C407.379 487.328 443.21 487.328 465.309 465.229Z" stroke="white" stroke-width="1.5" stroke-miterlimit="10"/>
<path d="M385.242 385.236C439.474 331.004 439.474 243.076 385.242 188.844C331.009 134.612 243.082 134.612 188.85 188.844C134.618 243.076 134.618 331.004 188.85 385.236C243.082 439.468 331.009 439.468 385.242 385.236Z" stroke="white" stroke-width="1.5" stroke-miterlimit="10"/>
<path d="M280.943 685.906C335.175 631.674 335.175 543.746 280.943 489.514C226.711 435.282 138.783 435.282 84.5514 489.514C30.3193 543.746 30.3193 631.674 84.5514 685.906C138.784 740.138 226.711 740.138 280.943 685.906Z" stroke="white" stroke-width="1.5" stroke-miterlimit="10"/>
<path d="M685.5 281.363C739.732 227.131 739.732 139.203 685.5 84.9711C631.268 30.739 543.341 30.739 489.109 84.9711C434.876 139.203 434.876 227.131 489.109 281.363C543.341 335.595 631.268 335.595 685.5 281.363Z" stroke="white" stroke-width="1.5" stroke-miterlimit="10"/>
<path d="M581.629 581.626C635.861 527.394 635.861 439.466 581.629 385.234C527.397 331.002 439.469 331.002 385.237 385.234C331.005 439.466 331.005 527.394 385.237 581.626C439.469 635.858 527.397 635.858 581.629 581.626Z" stroke="white" stroke-width="1.5" stroke-miterlimit="10"/>
<path d="M385.226 385.23C473.067 297.389 473.067 154.971 385.226 67.1307C297.386 -20.71 154.968 -20.71 67.1272 67.1307C-20.7135 154.971 -20.7135 297.389 67.1272 385.23C154.968 473.07 297.386 473.07 385.226 385.23Z" stroke="white" stroke-width="1.5" stroke-miterlimit="10"/>
<path d="M703.342 703.34C791.182 615.499 791.182 473.081 703.342 385.241C615.501 297.4 473.083 297.4 385.243 385.241C297.402 473.081 297.402 615.499 385.243 703.34C473.083 791.18 615.501 791.18 703.342 703.34Z" stroke="white" stroke-width="1.5" stroke-miterlimit="10"/>
<path d="M449.636 360.847C460.688 349.795 460.687 331.877 449.636 320.825C438.584 309.773 420.665 309.773 409.613 320.825C398.562 331.877 398.562 349.795 409.613 360.847C420.665 371.899 438.584 371.899 449.636 360.847Z" stroke="white" stroke-width="1.5" stroke-miterlimit="10"/>
<path d="M360.056 450.447C371.107 439.395 371.107 421.476 360.056 410.424C349.004 399.373 331.085 399.373 320.033 410.424C308.982 421.476 308.981 439.395 320.033 450.447C331.085 461.498 349.004 461.498 360.056 450.447Z" stroke="white" stroke-width="1.5" stroke-miterlimit="10"/>
</g>
</g>
<defs>
<clipPath id="clip0">
<rect width="770.47" height="770.47" fill="white"/>
</clipPath>
</defs>
</svg>
