<svg xmlns="http://www.w3.org/2000/svg" viewBox="0 0 770.47 770.47"><defs>
  <style>.cls-1{opacity:0.1;}.cls-2{fill:none;stroke:#fff;stroke-miterlimit:10;stroke-width:2.5px;}</style></defs>
  <title>PX-Blue-Circles-BG</title><g id="Layer_2" data-name="Layer 2"><g id="Layer_1-2" data-name="Layer 1">
    <g class="cls-1"><circle class="cls-2" cx="345.26" cy="345.18" r="56.59" transform="translate(-142.95 345.24) rotate(-45)"/>
      <circle class="cls-2" cx="425.29" cy="425.21" r="56.59" transform="translate(-176.1 425.27) rotate(-45)"/>
      <circle class="cls-2" cx="287.04" cy="287.04" r="138.87" transform="translate(-118.89 287.04) rotate(-45)"/>
      <circle class="cls-2" cx="182.75" cy="587.71" r="138.87" transform="translate(-362.05 301.36) rotate(-45)"/>
      <circle class="cls-2" cx="587.3" cy="183.17" r="138.87" transform="translate(42.5 468.93) rotate(-45)"/>
      <circle class="cls-2" cx="483.43" cy="483.43" r="138.87" transform="translate(-200.24 483.43) rotate(-45)"/>
      <circle class="cls-2" cx="226.18" cy="226.18" r="224.93" transform="translate(-93.69 226.18) rotate(-45)"/>
      <circle class="cls-2" cx="544.29" cy="544.29" r="224.93" transform="translate(-225.45 544.29) rotate(-45)"/>
      <circle class="cls-2" cx="429.63" cy="340.84" r="28.3" transform="translate(-115.18 403.62) rotate(-45)"/>
      <circle class="cls-2" cx="340.04" cy="430.43" r="28.3" transform="translate(-204.76 366.52) rotate(-45)"/>
    </g>
  </g>
  </g>
</svg>
