<svg xmlns="http://www.w3.org/2000/svg" viewBox="0 0 213.24 34.7"><defs><style>.cls-1{fill:#007bc1;}.cls-2{fill:#007bc1;}.cls-3{fill:#007bc1;}</style></defs><title>Asset 2</title><g id="Layer_2" data-name="Layer 2"><g id="Layer_1-2" data-name="Layer 1"><ellipse class="cls-1" cx="16.24" cy="18.44" rx="5.17" ry="5.14"/><path class="cls-1" d="M31,15.16A15.07,15.07,0,1,1,14.11,3.53,2.74,2.74,0,0,0,14.8,4.7a2.76,2.76,0,0,0,3.89,0,2.7,2.7,0,0,0,.78-1.62h0A2.75,2.75,0,0,0,14,2.34,16.27,16.27,0,1,0,32.13,15h0a15.75,15.75,0,0,0-4.42-7.8h0A17.3,17.3,0,0,1,31,15.16ZM18.35,2.94a1.58,1.58,0,0,1-.46,1,1.62,1.62,0,0,1-2.77-1.05h0a1.64,1.64,0,0,1,.47-1.23,1.61,1.61,0,0,1,2.29,0A1.59,1.59,0,0,1,18.35,2.94Z"/><path class="cls-2" d="M52.59,8.58a3,3,0,0,1-1.1,2.48,5,5,0,0,1-3.14.87H47.1V16.1H45.86V5.48h2.75C51.27,5.48,52.59,6.52,52.59,8.58ZM47.1,10.87h1.11a4.15,4.15,0,0,0,2.37-.53,2,2,0,0,0,.74-1.7,1.82,1.82,0,0,0-.69-1.57,3.56,3.56,0,0,0-2.15-.52H47.1Z"/><path class="cls-2" d="M61.51,12.12a4.34,4.34,0,0,1-1,3,3.43,3.43,0,0,1-2.7,1.1,3.62,3.62,0,0,1-1.9-.5,3.39,3.39,0,0,1-1.28-1.44,5,5,0,0,1-.45-2.19,4.45,4.45,0,0,1,1-3A3.46,3.46,0,0,1,57.87,8a3.36,3.36,0,0,1,2.65,1.11A4.35,4.35,0,0,1,61.51,12.12Zm-6.07,0a3.75,3.75,0,0,0,.61,2.32,2.41,2.41,0,0,0,3.59,0,3.73,3.73,0,0,0,.62-2.32,3.68,3.68,0,0,0-.62-2.31,2.46,2.46,0,0,0-3.6,0A3.76,3.76,0,0,0,55.44,12.12Z"/><path class="cls-2" d="M70.12,16.1l-1.46-4.67c-.09-.28-.27-.93-.52-1.94h-.06c-.19.84-.36,1.5-.5,2L66.07,16.1H64.68l-2.17-8h1.26c.51,2,.91,3.52,1.17,4.57a16.65,16.65,0,0,1,.46,2.11h.06c.06-.27.14-.63.26-1.07s.22-.78.31-1l1.46-4.57H68.8l1.42,4.57a15.79,15.79,0,0,1,.55,2.1h.06A7.33,7.33,0,0,1,71,14c.08-.36.59-2.31,1.51-5.86h1.25l-2.2,8Z"/><path class="cls-2" d="M78.55,16.25a3.65,3.65,0,0,1-2.79-1.08,4.14,4.14,0,0,1-1-3,4.63,4.63,0,0,1,1-3.06A3.13,3.13,0,0,1,78.24,8,3,3,0,0,1,80.6,9a3.74,3.74,0,0,1,.88,2.6v.76H76a3.2,3.2,0,0,0,.71,2.13,2.46,2.46,0,0,0,1.89.72,6.5,6.5,0,0,0,2.54-.53v1.07a5.82,5.82,0,0,1-1.2.4A6.81,6.81,0,0,1,78.55,16.25ZM78.22,9a2,2,0,0,0-1.53.62A2.9,2.9,0,0,0,76,11.36h4.16a2.67,2.67,0,0,0-.51-1.75A1.78,1.78,0,0,0,78.22,9Z"/><path class="cls-2" d="M87.16,8a5.35,5.35,0,0,1,1,.08L88,9.2a4.3,4.3,0,0,0-.87-.11,2.15,2.15,0,0,0-1.66.79,2.88,2.88,0,0,0-.68,1.95V16.1H83.53v-8h1l.13,1.48h.06a3.5,3.5,0,0,1,1.07-1.2A2.41,2.41,0,0,1,87.16,8Z"/><path class="cls-2" d="M100.71,16.1h-1.4l-2.85-4.67L93.55,16.1h-1.3l3.53-5.55L92.49,5.48h1.36l2.64,4.21,2.65-4.21h1.32l-3.29,5Z"/><path class="cls-2" d="M105.75,16.25a3.5,3.5,0,0,1-1.42-.29,2.74,2.74,0,0,1-1.07-.88h-.09a10.22,10.22,0,0,1,.09,1.32v3.28h-1.21V8.14h1l.17,1.09h.06a2.81,2.81,0,0,1,1.08-.94A3.17,3.17,0,0,1,105.75,8a3,3,0,0,1,2.45,1.08,4.78,4.78,0,0,1,.86,3,4.69,4.69,0,0,1-.88,3A2.92,2.92,0,0,1,105.75,16.25ZM105.58,9a2.16,2.16,0,0,0-1.77.68,3.49,3.49,0,0,0-.55,2.15v.27a4,4,0,0,0,.55,2.39,2.13,2.13,0,0,0,1.8.73,1.85,1.85,0,0,0,1.61-.84,3.93,3.93,0,0,0,.59-2.3,3.8,3.8,0,0,0-.59-2.28A1.91,1.91,0,0,0,105.58,9Z"/><path class="cls-2" d="M114.53,16.25a3.65,3.65,0,0,1-2.79-1.08,4.14,4.14,0,0,1-1-3,4.63,4.63,0,0,1,1-3.06A3.13,3.13,0,0,1,114.21,8a3,3,0,0,1,2.37,1,3.78,3.78,0,0,1,.87,2.6v.76H112a3.15,3.15,0,0,0,.71,2.13,2.46,2.46,0,0,0,1.89.72,6.54,6.54,0,0,0,2.54-.53v1.07a5.9,5.9,0,0,1-1.21.4A6.77,6.77,0,0,1,114.53,16.25ZM114.2,9a2,2,0,0,0-1.53.62,2.9,2.9,0,0,0-.67,1.73h4.16a2.67,2.67,0,0,0-.51-1.75A1.79,1.79,0,0,0,114.2,9Z"/><path class="cls-2" d="M123.14,8a5.44,5.44,0,0,1,1,.08l-.17,1.12a4.3,4.3,0,0,0-.87-.11,2.14,2.14,0,0,0-1.65.79,2.84,2.84,0,0,0-.69,1.95V16.1h-1.2v-8h1l.14,1.48h.06a3.5,3.5,0,0,1,1.07-1.2A2.38,2.38,0,0,1,123.14,8Z"/><path class="cls-2" d="M128.15,15.25a3.18,3.18,0,0,0,.62-.05l.47-.09V16a2.67,2.67,0,0,1-.58.16,4.37,4.37,0,0,1-.68.06c-1.54,0-2.31-.81-2.31-2.44V9.08h-1.14V8.5l1.14-.5.51-1.7h.69V8.14h2.31v.94h-2.31v4.68a1.67,1.67,0,0,0,.34,1.11A1.21,1.21,0,0,0,128.15,15.25Z"/><path class="cls-2" d="M134.75,5.48h3.31a6.36,6.36,0,0,1,3.28.65,2.24,2.24,0,0,1,1,2,2.53,2.53,0,0,1-.45,1.56,1.81,1.81,0,0,1-1.19.74v.07a2.37,2.37,0,0,1,1.46.84,2.72,2.72,0,0,1,.44,1.64,2.73,2.73,0,0,1-1,2.27,4.56,4.56,0,0,1-2.86.81h-4ZM137,9.69h1.31a2.42,2.42,0,0,0,1.33-.28,1.07,1.07,0,0,0,.41-.94.94.94,0,0,0-.45-.88,3,3,0,0,0-1.41-.26H137Zm0,1.79v2.76h1.47a2.21,2.21,0,0,0,1.37-.35,1.31,1.31,0,0,0,.45-1.09q0-1.32-1.89-1.32Z"/><path class="cls-2" d="M146.79,16.1h-2.22V4.8h2.22Z"/><path class="cls-2" d="M154.86,16.1l-.3-1h-.11a2.41,2.41,0,0,1-1,.88,3.54,3.54,0,0,1-1.49.31,2.86,2.86,0,0,1-2.16-.77,3.09,3.09,0,0,1-.72-2.2V8h2.21v4.74a2.34,2.34,0,0,0,.31,1.32,1.13,1.13,0,0,0,1,.44,1.47,1.47,0,0,0,1.34-.62,3.8,3.8,0,0,0,.42-2.06V8h2.21V16.1Z"/><path class="cls-2" d="M162.56,16.25a4.17,4.17,0,0,1-3.07-1.09,4.11,4.11,0,0,1-1.1-3.06,4.49,4.49,0,0,1,1-3.15,4.13,4.13,0,0,1,5.5-.14,3.71,3.71,0,0,1,1,2.71v1.07h-5.24a2.21,2.21,0,0,0,.56,1.48,2,2,0,0,0,1.47.53,6.23,6.23,0,0,0,1.39-.15,7.75,7.75,0,0,0,1.36-.49v1.71a5.07,5.07,0,0,1-1.24.44A8.17,8.17,0,0,1,162.56,16.25Zm-.31-6.84a1.45,1.45,0,0,0-1.11.44,2.06,2.06,0,0,0-.45,1.27h3.1a1.88,1.88,0,0,0-.42-1.27A1.48,1.48,0,0,0,162.25,9.41Z"/><path class="cls-3" d="M48.7,26.31H45.9l-1,2.43H44.4l2.78-6.93h.3l2.72,6.93h-.54Zm-2.63-.44h2.47l-.94-2.48c-.08-.2-.17-.47-.28-.81-.09.3-.18.57-.28.82Z"/><path class="cls-3" d="M58.93,25.23A3.48,3.48,0,0,1,58,27.85a3.66,3.66,0,0,1-2.68.89H53.69v-6.9h1.87a3.37,3.37,0,0,1,2.51.87A3.42,3.42,0,0,1,58.93,25.23Zm-.52,0a2.65,2.65,0,0,0-3-3H54.17v6.05h1.15Q58.41,28.32,58.41,25.25Z"/><path class="cls-3" d="M62.47,28.84a2.22,2.22,0,0,1-1.74-.69,2.75,2.75,0,0,1-.63-1.93,3,3,0,0,1,.61-2,2,2,0,0,1,1.63-.74,1.75,1.75,0,0,1,1.43.64,2.6,2.6,0,0,1,.52,1.72v.37h-3.7a2.41,2.41,0,0,0,.5,1.62,1.72,1.72,0,0,0,1.38.55,4.3,4.3,0,0,0,.77-.06,4.84,4.84,0,0,0,.85-.26v.42a3.77,3.77,0,0,1-.81.26A4,4,0,0,1,62.47,28.84Zm-.13-4.91a1.5,1.5,0,0,0-1.19.49,2.27,2.27,0,0,0-.53,1.41h3.17a2.31,2.31,0,0,0-.38-1.4A1.3,1.3,0,0,0,62.34,23.93Z"/><path class="cls-3" d="M68.89,27.41a1.23,1.23,0,0,1-.53,1.06,2.51,2.51,0,0,1-1.48.37,3.59,3.59,0,0,1-1.64-.32V28a3.59,3.59,0,0,0,1.64.38A2.13,2.13,0,0,0,68,28.15a.77.77,0,0,0,.39-.67.8.8,0,0,0-.31-.65,3.34,3.34,0,0,0-1-.52A6.71,6.71,0,0,1,66,25.83a1.46,1.46,0,0,1-.47-.45,1.12,1.12,0,0,1-.16-.62,1.05,1.05,0,0,1,.48-.91,2.42,2.42,0,0,1,1.36-.34,4,4,0,0,1,1.57.32l-.17.42a3.63,3.63,0,0,0-1.4-.31,2,2,0,0,0-1,.21.65.65,0,0,0-.37.57.79.79,0,0,0,.29.64,3.76,3.76,0,0,0,1.11.54,5.72,5.72,0,0,1,1,.45,1.52,1.52,0,0,1,.48.46A1.17,1.17,0,0,1,68.89,27.41Z"/><path class="cls-3" d="M70.14,22.19c0-.3.1-.46.3-.46a.27.27,0,0,1,.23.12.63.63,0,0,1,.08.34.62.62,0,0,1-.08.33.28.28,0,0,1-.23.13C70.24,22.65,70.14,22.49,70.14,22.19Zm.54,6.55h-.47V23.61h.47Z"/><path class="cls-3" d="M76.4,23.61v.33L75.34,24a1.8,1.8,0,0,1,.42,1.16,1.57,1.57,0,0,1-.49,1.2,1.9,1.9,0,0,1-1.33.46,2.77,2.77,0,0,1-.49,0,1.23,1.23,0,0,0-.42.34.72.72,0,0,0-.15.42.37.37,0,0,0,.19.36,1.18,1.18,0,0,0,.62.12h.9a2.12,2.12,0,0,1,1.28.33,1.2,1.2,0,0,1,.44,1,1.44,1.44,0,0,1-.66,1.26,3.36,3.36,0,0,1-1.87.44,2.56,2.56,0,0,1-1.5-.38,1.19,1.19,0,0,1-.53-1,1.22,1.22,0,0,1,.33-.88A1.64,1.64,0,0,1,73,28.3.89.89,0,0,1,72.6,28a.63.63,0,0,1-.14-.42,1.08,1.08,0,0,1,.65-.9,1.54,1.54,0,0,1-.7-.58,1.75,1.75,0,0,1-.25-.91A1.64,1.64,0,0,1,72.65,24,1.85,1.85,0,0,1,74,23.51a2.54,2.54,0,0,1,.78.1Zm-4.16,6c0,.71.53,1.06,1.58,1.06,1.34,0,2-.43,2-1.29a.75.75,0,0,0-.32-.67,1.89,1.89,0,0,0-1-.21h-.84C72.71,28.5,72.24,28.87,72.24,29.61Zm.4-4.4a1.2,1.2,0,0,0,.36.93,1.65,1.65,0,0,0,2,0,1.28,1.28,0,0,0,.34-.95,1.3,1.3,0,0,0-.35-1,1.41,1.41,0,0,0-1-.33,1.3,1.3,0,0,0-1,.35A1.32,1.32,0,0,0,72.64,25.21Z"/><path class="cls-3" d="M81,28.74V25.42a1.62,1.62,0,0,0-.33-1.13,1.31,1.31,0,0,0-1-.35,1.77,1.77,0,0,0-1.35.46,2.23,2.23,0,0,0-.42,1.51v2.83h-.47V23.61h.4l.09.71h0a1.93,1.93,0,0,1,1.78-.81c1.17,0,1.75.63,1.75,1.88v3.35Z"/><path class="cls-3" d="M89.59,27A1.65,1.65,0,0,1,89,28.33a2.64,2.64,0,0,1-1.69.51,5.2,5.2,0,0,1-1.94-.28v-.48a4.92,4.92,0,0,0,1.9.32A2.13,2.13,0,0,0,88.58,28a1.25,1.25,0,0,0,.5-1,1.21,1.21,0,0,0-.17-.65,1.49,1.49,0,0,0-.54-.46,5.72,5.72,0,0,0-1.09-.46,3.83,3.83,0,0,1-1.46-.79,1.56,1.56,0,0,1-.41-1.12A1.58,1.58,0,0,1,86,22.23a2.43,2.43,0,0,1,1.56-.49,4.67,4.67,0,0,1,1.83.37l-.18.42a4.23,4.23,0,0,0-1.64-.36,2,2,0,0,0-1.22.35,1.17,1.17,0,0,0-.45,1,1.26,1.26,0,0,0,.14.62,1.29,1.29,0,0,0,.45.45A6.39,6.39,0,0,0,87.6,25a5.64,5.64,0,0,1,1.21.55,1.66,1.66,0,0,1,.59.59A1.55,1.55,0,0,1,89.59,27Z"/><path class="cls-3" d="M90.07,23.61h.48l1.09,2.88c.33.89.54,1.48.63,1.79h0c.13-.4.34-1,.64-1.82L94,23.61h.48l-2.3,6a4.25,4.25,0,0,1-.47,1,1.23,1.23,0,0,1-.44.38,1.41,1.41,0,0,1-.61.13,2.35,2.35,0,0,1-.6-.1v-.41a2.21,2.21,0,0,0,.59.08.8.8,0,0,0,.43-.12,1,1,0,0,0,.33-.35,4.69,4.69,0,0,0,.34-.75c.13-.35.22-.57.26-.68Z"/><path class="cls-3" d="M98.55,27.41A1.22,1.22,0,0,1,98,28.47a2.54,2.54,0,0,1-1.49.37,3.52,3.52,0,0,1-1.63-.32V28a3.55,3.55,0,0,0,1.63.38,2.11,2.11,0,0,0,1.15-.25.76.76,0,0,0,.4-.67.81.81,0,0,0-.32-.65,3.34,3.34,0,0,0-1-.52,6.71,6.71,0,0,1-1.08-.48,1.57,1.57,0,0,1-.47-.45,1.21,1.21,0,0,1-.16-.62,1.06,1.06,0,0,1,.49-.91,2.36,2.36,0,0,1,1.35-.34,4.06,4.06,0,0,1,1.58.32l-.18.42a3.63,3.63,0,0,0-1.4-.31,2,2,0,0,0-1,.21.64.64,0,0,0-.36.57.79.79,0,0,0,.28.64,3.71,3.71,0,0,0,1.12.54,6.09,6.09,0,0,1,1,.45,1.48,1.48,0,0,1,.47.46A1.08,1.08,0,0,1,98.55,27.41Z"/><path class="cls-3" d="M101.23,28.42a3.55,3.55,0,0,0,.77-.07v.38a2.67,2.67,0,0,1-.78.11,1.3,1.3,0,0,1-1-.36,1.75,1.75,0,0,1-.32-1.15V24h-.76v-.27l.76-.22.24-1.16h.24v1.24h1.5V24h-1.5v3.25a1.47,1.47,0,0,0,.21.87A.73.73,0,0,0,101.23,28.42Z"/><path class="cls-3" d="M105.18,28.84a2.24,2.24,0,0,1-1.74-.69,2.75,2.75,0,0,1-.63-1.93,3,3,0,0,1,.61-2,2,2,0,0,1,1.63-.74,1.75,1.75,0,0,1,1.43.64,2.6,2.6,0,0,1,.52,1.72v.37h-3.7a2.41,2.41,0,0,0,.5,1.62,1.72,1.72,0,0,0,1.38.55,4.3,4.3,0,0,0,.77-.06,4.84,4.84,0,0,0,.85-.26v.42a3.77,3.77,0,0,1-.81.26A4,4,0,0,1,105.18,28.84Zm-.13-4.91a1.52,1.52,0,0,0-1.19.49,2.27,2.27,0,0,0-.53,1.41h3.17a2.24,2.24,0,0,0-.38-1.4A1.3,1.3,0,0,0,105.05,23.93Z"/><path class="cls-3" d="M114.83,28.74V25.38a1.66,1.66,0,0,0-.3-1.1,1.09,1.09,0,0,0-.89-.34,1.46,1.46,0,0,0-1.17.43,2.08,2.08,0,0,0-.38,1.37v3h-.47v-3.5c0-.87-.4-1.3-1.19-1.3a1.42,1.42,0,0,0-1.18.47,2.46,2.46,0,0,0-.37,1.5v2.83h-.46V23.61h.38l.1.71h0a1.41,1.41,0,0,1,.61-.6,1.77,1.77,0,0,1,.86-.21,1.48,1.48,0,0,1,1.56.92h0a1.69,1.69,0,0,1,.67-.68,1.9,1.9,0,0,1,1-.24,1.64,1.64,0,0,1,1.26.45,2.05,2.05,0,0,1,.42,1.43v3.35Z"/><path class="cls-3" d="M121.37,24h-1.21v4.72h-.47V24h-1v-.27l1-.18v-.4a2.22,2.22,0,0,1,.35-1.38,1.34,1.34,0,0,1,1.14-.44,3.17,3.17,0,0,1,.85.12l-.11.41a2.45,2.45,0,0,0-.75-.12.88.88,0,0,0-.78.33,1.85,1.85,0,0,0-.23,1.05v.47h1.21Z"/><path class="cls-3" d="M126.6,26.17a2.93,2.93,0,0,1-.6,2,2.33,2.33,0,0,1-2.87.38,2,2,0,0,1-.79-.93,3.32,3.32,0,0,1-.28-1.41,2.88,2.88,0,0,1,.61-2,2.11,2.11,0,0,1,1.67-.71,2.06,2.06,0,0,1,1.66.71A3,3,0,0,1,126.6,26.17Zm-4,0a2.59,2.59,0,0,0,.47,1.65,1.76,1.76,0,0,0,2.63,0,2.59,2.59,0,0,0,.46-1.65,2.53,2.53,0,0,0-.47-1.65,1.78,1.78,0,0,0-2.63,0A2.65,2.65,0,0,0,122.55,26.17Z"/><path class="cls-3" d="M130.05,23.51a4.36,4.36,0,0,1,.69.07l-.09.45A2.84,2.84,0,0,0,130,24a1.28,1.28,0,0,0-1.08.56,2.26,2.26,0,0,0-.42,1.4v2.83H128V23.61h.4l.05.93h0a2.23,2.23,0,0,1,.68-.8A1.61,1.61,0,0,1,130.05,23.51Z"/><path class="cls-3" d="M138.19,28.74h-3.77v-6.9h3.77v.45H134.9V24.9H138v.44h-3.1v3h3.29Z"/><path class="cls-3" d="M142.75,28.74l-.12-.81h0a2.39,2.39,0,0,1-.79.7,2.1,2.1,0,0,1-1,.21,1.65,1.65,0,0,1-1.17-.39,1.38,1.38,0,0,1-.42-1.07,1.32,1.32,0,0,1,.62-1.17,3.42,3.42,0,0,1,1.81-.43l1,0v-.34a1.75,1.75,0,0,0-.3-1.11,1.15,1.15,0,0,0-1-.37,3.13,3.13,0,0,0-1.47.4l-.18-.41a4,4,0,0,1,1.67-.4,1.69,1.69,0,0,1,1.27.44,2,2,0,0,1,.41,1.37v3.41Zm-1.89-.33a1.63,1.63,0,0,0,1.77-1.77v-.51l-.9,0a3.47,3.47,0,0,0-1.54.34,1,1,0,0,0-.46.89,1,1,0,0,0,.3.75A1.17,1.17,0,0,0,140.86,28.41Z"/><path class="cls-3" d="M146.11,28.42a3.49,3.49,0,0,0,.77-.07v.38a2.57,2.57,0,0,1-.78.11,1.27,1.27,0,0,1-1-.36,1.7,1.7,0,0,1-.33-1.15V24H144v-.27l.76-.22.24-1.16h.24v1.24h1.51V24h-1.51v3.25a1.47,1.47,0,0,0,.21.87A.74.74,0,0,0,146.11,28.42Z"/><path class="cls-3" d="M152.24,26.17a2.93,2.93,0,0,1-.61,2,2.12,2.12,0,0,1-1.68.71,2.15,2.15,0,0,1-1.19-.33,2,2,0,0,1-.79-.93,3.48,3.48,0,0,1-.27-1.41,2.88,2.88,0,0,1,.6-2,2.12,2.12,0,0,1,1.68-.71,2.06,2.06,0,0,1,1.65.71A2.9,2.9,0,0,1,152.24,26.17Zm-4.05,0a2.59,2.59,0,0,0,.46,1.65,1.76,1.76,0,0,0,2.63,0,2.59,2.59,0,0,0,.47-1.65,2.59,2.59,0,0,0-.47-1.65,1.61,1.61,0,0,0-1.32-.58,1.55,1.55,0,0,0-1.31.58A2.59,2.59,0,0,0,148.19,26.17Z"/><path class="cls-3" d="M157.24,28.74V25.42a1.62,1.62,0,0,0-.33-1.13,1.33,1.33,0,0,0-1-.35,1.77,1.77,0,0,0-1.35.46,2.23,2.23,0,0,0-.43,1.51v2.83h-.46V23.61h.39l.09.71h0a1.93,1.93,0,0,1,1.78-.81c1.17,0,1.75.63,1.75,1.88v3.35Z"/><path class="cls-3" d="M165.31,26.31h-2.8l-1,2.43H161l2.78-6.93h.3l2.72,6.93h-.54Zm-2.63-.44h2.47l-.94-2.48c-.08-.2-.17-.47-.28-.81-.09.3-.18.57-.28.82Z"/><path class="cls-3" d="M169.87,28.84a1.88,1.88,0,0,1-1.73-.89h0v.4c0,.23,0,.49,0,.76v2h-.47V23.61h.4l.09.74h0a1.84,1.84,0,0,1,1.69-.84,1.89,1.89,0,0,1,1.58.69,3.11,3.11,0,0,1,.55,2,3,3,0,0,1-.58,2A1.89,1.89,0,0,1,169.87,28.84Zm0-.42a1.43,1.43,0,0,0,1.22-.58,2.71,2.71,0,0,0,.43-1.64c0-1.51-.54-2.26-1.63-2.26a1.64,1.64,0,0,0-1.32.49,2.48,2.48,0,0,0-.42,1.61v.15a2.83,2.83,0,0,0,.4,1.72A1.59,1.59,0,0,0,169.86,28.42Z"/><path class="cls-3" d="M175.62,28.84a1.89,1.89,0,0,1-1.73-.89h0v.4c0,.23,0,.49,0,.76v2h-.46V23.61h.39l.09.74h0a1.85,1.85,0,0,1,1.69-.84,1.89,1.89,0,0,1,1.58.69,3.05,3.05,0,0,1,.55,2,3,3,0,0,1-.57,2A1.93,1.93,0,0,1,175.62,28.84Zm0-.42a1.42,1.42,0,0,0,1.22-.58,2.71,2.71,0,0,0,.43-1.64c0-1.51-.54-2.26-1.63-2.26a1.64,1.64,0,0,0-1.32.49,2.48,2.48,0,0,0-.42,1.61v.15a2.82,2.82,0,0,0,.41,1.72A1.56,1.56,0,0,0,175.61,28.42Z"/><path class="cls-3" d="M179.65,28.74h-.47V21.4h.47Z"/><path class="cls-3" d="M181.3,22.19c0-.3.1-.46.3-.46a.27.27,0,0,1,.23.12.63.63,0,0,1,.08.34.62.62,0,0,1-.08.33.28.28,0,0,1-.23.13C181.4,22.65,181.3,22.49,181.3,22.19Zm.53,6.55h-.46V23.61h.46Z"/><path class="cls-3" d="M185.6,28.84a2.17,2.17,0,0,1-1.72-.7,2.75,2.75,0,0,1-.63-1.93,2.87,2.87,0,0,1,.65-2,2.28,2.28,0,0,1,1.77-.71,3.46,3.46,0,0,1,1.28.24l-.13.41a3.71,3.71,0,0,0-1.16-.22,1.76,1.76,0,0,0-1.43.58,2.59,2.59,0,0,0-.48,1.68,2.53,2.53,0,0,0,.48,1.63,1.68,1.68,0,0,0,1.36.58,3.27,3.27,0,0,0,1.3-.25v.44A3,3,0,0,1,185.6,28.84Z"/><path class="cls-3" d="M191.26,28.74l-.12-.81h0a2.29,2.29,0,0,1-.79.7,2.07,2.07,0,0,1-1,.21,1.65,1.65,0,0,1-1.17-.39,1.38,1.38,0,0,1-.42-1.07,1.34,1.34,0,0,1,.62-1.17,3.42,3.42,0,0,1,1.81-.43l1,0v-.34a1.75,1.75,0,0,0-.3-1.11,1.12,1.12,0,0,0-1-.37,3.14,3.14,0,0,0-1.48.4l-.18-.41a4,4,0,0,1,1.67-.4,1.69,1.69,0,0,1,1.27.44,1.94,1.94,0,0,1,.42,1.37v3.41Zm-1.89-.33a1.63,1.63,0,0,0,1.77-1.77v-.51l-.89,0a3.52,3.52,0,0,0-1.55.34,1,1,0,0,0-.46.89,1,1,0,0,0,.3.75A1.18,1.18,0,0,0,189.37,28.41Z"/><path class="cls-3" d="M194.62,28.42a3.58,3.58,0,0,0,.78-.07v.38a2.69,2.69,0,0,1-.79.11,1.27,1.27,0,0,1-1-.36,1.7,1.7,0,0,1-.32-1.15V24h-.76v-.27l.76-.22.23-1.16h.24v1.24h1.51V24h-1.51v3.25a1.47,1.47,0,0,0,.21.87A.76.76,0,0,0,194.62,28.42Z"/><path class="cls-3" d="M196.44,22.19c0-.3.1-.46.3-.46a.28.28,0,0,1,.23.12.63.63,0,0,1,.08.34.62.62,0,0,1-.08.33.29.29,0,0,1-.23.13C196.54,22.65,196.44,22.49,196.44,22.19Zm.53,6.55h-.47V23.61H197Z"/><path class="cls-3" d="M202.93,26.17a2.93,2.93,0,0,1-.6,2,2.33,2.33,0,0,1-2.87.38,2,2,0,0,1-.79-.93,3.32,3.32,0,0,1-.28-1.41,2.88,2.88,0,0,1,.61-2,2.11,2.11,0,0,1,1.67-.71,2.06,2.06,0,0,1,1.66.71A3,3,0,0,1,202.93,26.17Zm-4.05,0a2.59,2.59,0,0,0,.47,1.65,1.76,1.76,0,0,0,2.63,0,2.59,2.59,0,0,0,.46-1.65,2.53,2.53,0,0,0-.47-1.65,1.78,1.78,0,0,0-2.63,0A2.65,2.65,0,0,0,198.88,26.17Z"/><path class="cls-3" d="M207.93,28.74V25.42a1.68,1.68,0,0,0-.32-1.13,1.34,1.34,0,0,0-1-.35,1.74,1.74,0,0,0-1.35.46,2.18,2.18,0,0,0-.43,1.51v2.83h-.47V23.61h.4l.09.71h0a1.92,1.92,0,0,1,1.78-.81c1.16,0,1.75.63,1.75,1.88v3.35Z"/><path class="cls-3" d="M213.24,27.41a1.23,1.23,0,0,1-.53,1.06,2.49,2.49,0,0,1-1.48.37,3.59,3.59,0,0,1-1.64-.32V28a3.62,3.62,0,0,0,1.64.38,2.13,2.13,0,0,0,1.15-.25.78.78,0,0,0,.4-.67.81.81,0,0,0-.32-.65,3.34,3.34,0,0,0-1-.52,6.71,6.71,0,0,1-1.08-.48,1.57,1.57,0,0,1-.47-.45,1.12,1.12,0,0,1-.16-.62,1,1,0,0,1,.49-.91,2.36,2.36,0,0,1,1.35-.34,4.06,4.06,0,0,1,1.58.32l-.18.42a3.63,3.63,0,0,0-1.4-.31,2,2,0,0,0-1,.21.65.65,0,0,0-.37.57.79.79,0,0,0,.29.64,3.71,3.71,0,0,0,1.12.54,6.09,6.09,0,0,1,1,.45,1.48,1.48,0,0,1,.47.46A1.08,1.08,0,0,1,213.24,27.41Z"/></g></g></svg>
