<svg xmlns="http://www.w3.org/2000/svg" width="48" height="48" viewBox="0 0 100 100"><title>touchscreen-large</title><g class="symbol face"><path class="outer" fill="#282828" d="M76.5 28.5h-53c-3.9 0-7 3.1-7 7v28.9c0 3.9 3.1 7 7 7h53c3.9 0 7-3.1 7-7V35.5c0-3.8-3.1-7-7-7z"/><path class="edging" opacity=".65" fill="#FFF" d="M76.5 28.5c3.9 0 7 3.1 7 7v28.9c0 3.9-3.1 7-7 7h-53c-3.9 0-7-3.1-7-7V35.5c0-3.9 3.1-7 7-7h53m0-2h-53c-5 0-9 4-9 9v28.9c0 5 4 9 9 9h53c5 0 9-4 9-9V35.5c0-4.9-4-9-9-9z"/><linearGradient id="a" gradientUnits="userSpaceOnUse" x1="50" y1="34.531" x2="50" y2="65.469"><stop offset="0" stop-color="#545454"/><stop offset=".999" stop-color="#3b3b3b"/></linearGradient><path fill="url(#a)" d="M76.5 65.5h-53c-.6 0-1-.4-1-1v-29c0-.6.4-1 1-1h53c.6 0 1 .4 1 1v28.9c0 .6-.4 1.1-1 1.1z"/><path opacity=".6" d="M76.5 65.5h-53c-.6 0-1-.4-1-1v-29c0-.6.4-1 1-1h53c.6 0 1 .4 1 1v28.9c0 .6-.4 1.1-1 1.1z"/><path opacity=".8" fill="#FFF" d="M45.8 48.3l.6 2.1h-1.2l.6-2.1zm-1.1 3.6l-.5 1.7h3.1l-.5-1.7h-2.1zm8.1-4.8h-5.9V49h1.9v4.7h3c-.9-.7-1.5-1.8-1.5-3 0-1.7.9-3.2 2.5-3.6m1 4.9c.7 0 1.3-.6 1.3-1.3 0-.7-.5-1.3-1.2-1.4-.7 0-1.3.7-1.3 1.4-.1.6.5 1.2 1.2 1.3m6.2-.8l-1.2-4.1h-3.1v6.5h1.9v-4.1l1.2 4.1H62v-6.5h-1.9l-.1 4.1zm-18.3 2.4l.6-1.8h-2.1v-.6h2.2l.5-1.8h-2.8V49H43l.6-1.9H38v6.5h3.7z"/><linearGradient id="b" gradientUnits="userSpaceOnUse" x1="22.5" y1="47.162" x2="77.5" y2="47.162"><stop offset="0" stop-color="#fff" stop-opacity=".4"/><stop offset="1" stop-color="#fff" stop-opacity="0"/></linearGradient><path opacity=".6" fill="url(#b)" d="M77.5 37.9v-2.3c0-.6-.4-1-1-1h-53c-.6 0-1 .4-1 1v24.3l55-22z"/><linearGradient id="c" gradientUnits="userSpaceOnUse" x1="19.5" y1="50" x2="80.5" y2="50"><stop offset="0" stop-color="#666"/><stop offset="1" stop-color="#4d4d4d"/></linearGradient><path fill="url(#c)" d="M76.5 34.5c.6 0 1 .4 1 1v28.9c0 .6-.4 1-1 1h-53c-.6 0-1-.4-1-1V35.5c0-.6.4-1 1-1h53m0-3h-53c-2.2 0-4 1.8-4 4v28.9c0 2.2 1.8 4 4 4h53c2.2 0 4-1.8 4-4V35.5c0-2.2-1.8-4-4-4z"/><path class="highlight" opacity=".2" fill="#FFF" d="M76.5 31.5h-53c-2.2 0-4 1.8-4 4v1c0-2.2 1.8-4 4-4h53c2.2 0 4 1.8 4 4v-1c0-2.2-1.8-4-4-4z"/></g></svg>